<svg xmlns="http://www.w3.org/2000/svg" version="1.1" width="804" height="1024">
<rect x="0" y="0" width="804" height="1024" fill="#3b2c1b" />
<g transform="scale(4.000000) translate(0.5 0.5)">
<ellipse fill="#c08e68" fill-opacity="0.501961" cx="92" cy="99" rx="52" ry="52" />
<ellipse fill="#0e0800" fill-opacity="0.501961" cx="9" cy="39" rx="75" ry="75" />
<ellipse fill="#000000" fill-opacity="0.501961" cx="142" cy="238" rx="57" ry="57" />
<ellipse fill="#cba17e" fill-opacity="0.501961" cx="102" cy="57" rx="24" ry="24" />
<ellipse fill="#9d856d" fill-opacity="0.501961" cx="57" cy="134" rx="28" ry="28" />
<ellipse fill="#000000" fill-opacity="0.501961" cx="172" cy="0" rx="58" ry="58" />
<ellipse fill="#0d0000" fill-opacity="0.501961" cx="127" cy="93" rx="19" ry="19" />
<ellipse fill="#e5c499" fill-opacity="0.501961" cx="81" cy="92" rx="13" ry="13" />
<ellipse fill="#ffdeab" fill-opacity="0.501961" cx="113" cy="129" rx="9" ry="9" />
<ellipse fill="#000000" fill-opacity="0.501961" cx="92" cy="0" rx="28" ry="28" />
<ellipse fill="#1e160d" fill-opacity="0.501961" cx="69" cy="223" rx="55" ry="55" />
<ellipse fill="#2b2009" fill-opacity="0.501961" cx="13" cy="90" rx="42" ry="42" />
<ellipse fill="#839687" fill-opacity="0.501961" cx="3" cy="239" rx="13" ry="13" />
<ellipse fill="#160000" fill-opacity="0.501961" cx="98" cy="88" rx="9" ry="9" />
<ellipse fill="#010000" fill-opacity="0.501961" cx="200" cy="75" rx="23" ry="23" />
<ellipse fill="#b47842" fill-opacity="0.501961" cx="63" cy="74" rx="10" ry="10" />
<ellipse fill="#644128" fill-opacity="0.501961" cx="83" cy="53" rx="12" ry="12" />
<ellipse fill="#513727" fill-opacity="0.501961" cx="150" cy="66" rx="30" ry="30" />
<ellipse fill="#151100" fill-opacity="0.501961" cx="196" cy="115" rx="26" ry="26" />
<ellipse fill="#413027" fill-opacity="0.501961" cx="78" cy="173" rx="24" ry="24" />
<ellipse fill="#e2cbac" fill-opacity="0.501961" cx="102" cy="66" rx="10" ry="10" />
<ellipse fill="#100a00" fill-opacity="0.501961" cx="45" cy="0" rx="49" ry="49" />
<ellipse fill="#543b2e" fill-opacity="0.501961" cx="107" cy="159" rx="21" ry="21" />
<ellipse fill="#060000" fill-opacity="0.501961" cx="182" cy="0" rx="41" ry="41" />
<ellipse fill="#fab67c" fill-opacity="0.501961" cx="130" cy="113" rx="6" ry="6" />
<ellipse fill="#b38859" fill-opacity="0.501961" cx="60" cy="53" rx="6" ry="6" />
<ellipse fill="#6b5d4a" fill-opacity="0.501961" cx="47" cy="224" rx="10" ry="10" />
<ellipse fill="#97806a" fill-opacity="0.501961" cx="50" cy="140" rx="14" ry="14" />
<ellipse fill="#000000" fill-opacity="0.501961" cx="124" cy="99" rx="10" ry="10" />
<ellipse fill="#24140b" fill-opacity="0.501961" cx="151" cy="97" rx="19" ry="19" />
<ellipse fill="#e1b78f" fill-opacity="0.501961" cx="92" cy="102" rx="9" ry="9" />
<ellipse fill="#5b3b2b" fill-opacity="0.501961" cx="121" cy="36" rx="16" ry="16" />
<ellipse fill="#9d7350" fill-opacity="0.501961" cx="120" cy="74" rx="10" ry="10" />
<ellipse fill="#160906" fill-opacity="0.501961" cx="134" cy="159" rx="15" ry="15" />
<ellipse fill="#eac79a" fill-opacity="0.501961" cx="84" cy="80" rx="7" ry="7" />
<ellipse fill="#544631" fill-opacity="0.501961" cx="17" cy="177" rx="18" ry="18" />
<ellipse fill="#cdb692" fill-opacity="0.501961" cx="77" cy="126" rx="8" ry="8" />
<ellipse fill="#4d3923" fill-opacity="0.501961" cx="154" cy="139" rx="26" ry="26" />
<ellipse fill="#070300" fill-opacity="0.501961" cx="13" cy="134" rx="10" ry="10" />
<ellipse fill="#0d0400" fill-opacity="0.501961" cx="114" cy="203" rx="22" ry="22" />
<ellipse fill="#7d6955" fill-opacity="0.501961" cx="111" cy="174" rx="9" ry="9" />
<ellipse fill="#d7b093" fill-opacity="0.501961" cx="104" cy="133" rx="7" ry="7" />
<ellipse fill="#000000" fill-opacity="0.501961" cx="126" cy="120" rx="4" ry="4" />
<ellipse fill="#583f2b" fill-opacity="0.501961" cx="69" cy="138" rx="9" ry="9" />
<ellipse fill="#040100" fill-opacity="0.501961" cx="24" cy="218" rx="14" ry="14" />
<ellipse fill="#000000" fill-opacity="0.501961" cx="92" cy="182" rx="9" ry="9" />
<ellipse fill="#9e7955" fill-opacity="0.501961" cx="66" cy="102" rx="14" ry="14" />
<ellipse fill="#725d4c" fill-opacity="0.501961" cx="73" cy="184" rx="8" ry="8" />
<ellipse fill="#6d5a44" fill-opacity="0.501961" cx="171" cy="92" rx="9" ry="9" />
<ellipse fill="#584c2d" fill-opacity="0.501961" cx="200" cy="185" rx="21" ry="21" />
<ellipse fill="#cbad90" fill-opacity="0.501961" cx="99" cy="49" rx="8" ry="8" />
<ellipse fill="#150e08" fill-opacity="0.501961" cx="32" cy="163" rx="12" ry="12" />
<ellipse fill="#2f1005" fill-opacity="0.501961" cx="113" cy="92" rx="11" ry="11" />
<ellipse fill="#090100" fill-opacity="0.501961" cx="121" cy="0" rx="25" ry="25" />
<ellipse fill="#150b00" fill-opacity="0.501961" cx="166" cy="244" rx="37" ry="37" />
<ellipse fill="#c88857" fill-opacity="0.501961" cx="123" cy="132" rx="8" ry="8" />
<ellipse fill="#2c1910" fill-opacity="0.501961" cx="146" cy="65" rx="16" ry="16" />
<ellipse fill="#271409" fill-opacity="0.501961" cx="71" cy="161" rx="11" ry="11" />
<ellipse fill="#372a16" fill-opacity="0.501961" cx="23" cy="102" rx="23" ry="23" />
<ellipse fill="#594833" fill-opacity="0.501961" cx="48" cy="242" rx="9" ry="9" />
<ellipse fill="#050000" fill-opacity="0.501961" cx="160" cy="110" rx="9" ry="9" />
<ellipse fill="#867560" fill-opacity="0.501961" cx="97" cy="170" rx="6" ry="6" />
<ellipse fill="#6b5d47" fill-opacity="0.501961" cx="170" cy="64" rx="9" ry="9" />
<ellipse fill="#796550" fill-opacity="0.501961" cx="39" cy="133" rx="14" ry="14" />
<ellipse fill="#cd9571" fill-opacity="0.501961" cx="136" cy="139" rx="4" ry="4" />
<ellipse fill="#916c4d" fill-opacity="0.501961" cx="163" cy="123" rx="7" ry="7" />
<ellipse fill="#625747" fill-opacity="0.501961" cx="136" cy="180" rx="8" ry="8" />
<ellipse fill="#504426" fill-opacity="0.501961" cx="166" cy="167" rx="18" ry="18" />
<ellipse fill="#0b0000" fill-opacity="0.501961" cx="83" cy="173" rx="9" ry="9" />
<ellipse fill="#937d66" fill-opacity="0.501961" cx="83" cy="153" rx="5" ry="5" />
<ellipse fill="#120700" fill-opacity="0.501961" cx="113" cy="160" rx="8" ry="8" />
<ellipse fill="#1d1500" fill-opacity="0.501961" cx="18" cy="52" rx="39" ry="39" />
<ellipse fill="#9f7d57" fill-opacity="0.501961" cx="11" cy="155" rx="4" ry="4" />
<ellipse fill="#613f26" fill-opacity="0.501961" cx="119" cy="146" rx="9" ry="9" />
<ellipse fill="#1b0c06" fill-opacity="0.501961" cx="140" cy="130" rx="8" ry="8" />
<ellipse fill="#020100" fill-opacity="0.501961" cx="20" cy="148" rx="8" ry="8" />
<ellipse fill="#a4a997" fill-opacity="0.501961" cx="6" cy="232" rx="6" ry="6" />
<ellipse fill="#e3d9bc" fill-opacity="0.501961" cx="70" cy="107" rx="4" ry="4" />
<ellipse fill="#333426" fill-opacity="0.501961" cx="5" cy="252" rx="17" ry="17" />
<ellipse fill="#060402" fill-opacity="0.501961" cx="53" cy="183" rx="10" ry="10" />
<ellipse fill="#794724" fill-opacity="0.501961" cx="83" cy="113" rx="11" ry="11" />
<ellipse fill="#664c3e" fill-opacity="0.501961" cx="87" cy="40" rx="9" ry="9" />
<ellipse fill="#302411" fill-opacity="0.501961" cx="76" cy="239" rx="28" ry="28" />
<ellipse fill="#895f35" fill-opacity="0.501961" cx="61" cy="62" rx="7" ry="7" />
<ellipse fill="#000000" fill-opacity="0.501961" cx="25" cy="199" rx="8" ry="8" />
<ellipse fill="#6f5e4d" fill-opacity="0.501961" cx="52" cy="159" rx="9" ry="9" />
<ellipse fill="#926c48" fill-opacity="0.501961" cx="122" cy="54" rx="9" ry="9" />
<ellipse fill="#6b3615" fill-opacity="0.501961" cx="101" cy="119" rx="8" ry="8" />
<ellipse fill="#5f4337" fill-opacity="0.501961" cx="101" cy="30" rx="8" ry="8" />
<ellipse fill="#655936" fill-opacity="0.501961" cx="200" cy="213" rx="9" ry="9" />
<ellipse fill="#ffe2ae" fill-opacity="0.501961" cx="85" cy="93" rx="4" ry="4" />
<ellipse fill="#100b00" fill-opacity="0.501961" cx="69" cy="47" rx="8" ry="8" />
<ellipse fill="#604e3c" fill-opacity="0.501961" cx="81" cy="192" rx="8" ry="8" />
<ellipse fill="#120c00" fill-opacity="0.501961" cx="198" cy="52" rx="22" ry="22" />
<ellipse fill="#372a10" fill-opacity="0.501961" cx="183" cy="148" rx="26" ry="26" />
<ellipse fill="#7b6c5b" fill-opacity="0.501961" cx="63" cy="216" rx="4" ry="4" />
<ellipse fill="#c3481f" fill-opacity="0.501961" cx="108" cy="94" rx="4" ry="4" />
<ellipse fill="#1a120b" fill-opacity="0.501961" cx="0" cy="164" rx="11" ry="11" />
<ellipse fill="#9e7d58" fill-opacity="0.501961" cx="17" cy="166" rx="4" ry="4" />
<ellipse fill="#391600" fill-opacity="0.501961" cx="63" cy="102" rx="4" ry="4" />
<ellipse fill="#472e22" fill-opacity="0.501961" cx="65" cy="125" rx="4" ry="4" />
<ellipse fill="#d3cca9" fill-opacity="0.501961" cx="152" cy="148" rx="2" ry="2" />
<ellipse fill="#47280a" fill-opacity="0.501961" cx="72" cy="71" rx="8" ry="8" />
<ellipse fill="#61533c" fill-opacity="0.501961" cx="29" cy="186" rx="9" ry="9" />
<ellipse fill="#4a2a13" fill-opacity="0.501961" cx="70" cy="146" rx="6" ry="6" />
<ellipse fill="#9d683e" fill-opacity="0.501961" cx="91" cy="62" rx="9" ry="9" />
<ellipse fill="#0f0902" fill-opacity="0.501961" cx="27" cy="246" rx="10" ry="10" />
<ellipse fill="#362119" fill-opacity="0.501961" cx="147" cy="41" rx="16" ry="16" />
<ellipse fill="#92847e" fill-opacity="0.501961" cx="37" cy="198" rx="3" ry="3" />
<ellipse fill="#040000" fill-opacity="0.501961" cx="114" cy="142" rx="4" ry="4" />
<ellipse fill="#6c544a" fill-opacity="0.501961" cx="68" cy="173" rx="5" ry="5" />
<ellipse fill="#5c3e27" fill-opacity="0.501961" cx="81" cy="52" rx="8" ry="8" />
<ellipse fill="#372912" fill-opacity="0.501961" cx="5" cy="211" rx="17" ry="17" />
<ellipse fill="#c9a884" fill-opacity="0.501961" cx="83" cy="129" rx="5" ry="5" />
<ellipse fill="#997c61" fill-opacity="0.501961" cx="56" cy="140" rx="10" ry="10" />
<ellipse fill="#885937" fill-opacity="0.501961" cx="80" cy="100" rx="6" ry="6" />
<ellipse fill="#debb94" fill-opacity="0.501961" cx="90" cy="103" rx="6" ry="6" />
<ellipse fill="#5b3b26" fill-opacity="0.501961" cx="134" cy="87" rx="10" ry="10" />
<ellipse fill="#090000" fill-opacity="0.501961" cx="137" cy="163" rx="8" ry="8" />
<ellipse fill="#ffe4b9" fill-opacity="0.501961" cx="59" cy="48" rx="2" ry="2" />
<ellipse fill="#785f44" fill-opacity="0.501961" cx="145" cy="119" rx="6" ry="6" />
<ellipse fill="#422812" fill-opacity="0.501961" cx="64" cy="86" rx="6" ry="6" />
<ellipse fill="#bdaa93" fill-opacity="0.501961" cx="98" cy="75" rx="7" ry="7" />
<ellipse fill="#d8c3a2" fill-opacity="0.501961" cx="79" cy="87" rx="5" ry="5" />
<ellipse fill="#a08362" fill-opacity="0.501961" cx="5" cy="183" rx="3" ry="3" />
<ellipse fill="#030000" fill-opacity="0.501961" cx="17" cy="191" rx="4" ry="4" />
<ellipse fill="#1d0d00" fill-opacity="0.501961" cx="98" cy="90" rx="6" ry="6" />
<ellipse fill="#592f16" fill-opacity="0.501961" cx="52" cy="109" rx="4" ry="4" />
<ellipse fill="#ad9878" fill-opacity="0.501961" cx="40" cy="220" rx="3" ry="3" />
<ellipse fill="#ad8762" fill-opacity="0.501961" cx="116" cy="148" rx="4" ry="4" />
<ellipse fill="#9c7e55" fill-opacity="0.501961" cx="9" cy="149" rx="3" ry="3" />
<ellipse fill="#ba8553" fill-opacity="0.501961" cx="58" cy="78" rx="5" ry="5" />
<ellipse fill="#5b5f4f" fill-opacity="0.501961" cx="9" cy="243" rx="9" ry="9" />
<ellipse fill="#4d3f26" fill-opacity="0.501961" cx="178" cy="173" rx="15" ry="15" />
<ellipse fill="#c99670" fill-opacity="0.501961" cx="127" cy="139" rx="3" ry="3" />
<ellipse fill="#cdc3aa" fill-opacity="0.501961" cx="72" cy="126" rx="4" ry="4" />
<ellipse fill="#b49f85" fill-opacity="0.501961" cx="85" cy="162" rx="2" ry="2" />
<ellipse fill="#24120c" fill-opacity="0.501961" cx="102" cy="158" rx="8" ry="8" />
<ellipse fill="#1a140c" fill-opacity="0.501961" cx="28" cy="236" rx="14" ry="14" />
<ellipse fill="#140000" fill-opacity="0.501961" cx="130" cy="123" rx="3" ry="3" />
<ellipse fill="#1c1103" fill-opacity="0.501961" cx="161" cy="212" rx="28" ry="28" />
<ellipse fill="#f2b27e" fill-opacity="0.501961" cx="135" cy="118" rx="3" ry="3" />
<ellipse fill="#0e0000" fill-opacity="0.501961" cx="141" cy="107" rx="5" ry="5" />
<ellipse fill="#312512" fill-opacity="0.501961" cx="31" cy="94" rx="23" ry="23" />
<ellipse fill="#d69f6e" fill-opacity="0.501961" cx="65" cy="67" rx="3" ry="3" />
<ellipse fill="#fbcd94" fill-opacity="0.501961" cx="120" cy="109" rx="2" ry="2" />
<ellipse fill="#8d6b4b" fill-opacity="0.501961" cx="14" cy="160" rx="4" ry="4" />
<ellipse fill="#40341f" fill-opacity="0.501961" cx="141" cy="203" rx="6" ry="6" />
<ellipse fill="#000000" fill-opacity="0.501961" cx="37" cy="209" rx="6" ry="6" />
<ellipse fill="#38271b" fill-opacity="0.501961" cx="152" cy="88" rx="16" ry="16" />
<ellipse fill="#271b08" fill-opacity="0.501961" cx="107" cy="239" rx="18" ry="18" />
<ellipse fill="#55422e" fill-opacity="0.501961" cx="40" cy="254" rx="7" ry="7" />
<ellipse fill="#230200" fill-opacity="0.501961" cx="118" cy="115" rx="3" ry="3" />
<ellipse fill="#a57443" fill-opacity="0.501961" cx="72" cy="81" rx="5" ry="5" />
<ellipse fill="#b68b62" fill-opacity="0.501961" cx="88" cy="80" rx="7" ry="7" />
<ellipse fill="#120400" fill-opacity="0.501961" cx="121" cy="101" rx="8" ry="8" />
<ellipse fill="#5e3e26" fill-opacity="0.501961" cx="134" cy="70" rx="9" ry="9" />
<ellipse fill="#7d6b60" fill-opacity="0.501961" cx="107" cy="77" rx="6" ry="6" />
<ellipse fill="#0d0700" fill-opacity="0.501961" cx="73" cy="212" rx="7" ry="7" />
<ellipse fill="#514029" fill-opacity="0.501961" cx="91" cy="223" rx="5" ry="5" />
<ellipse fill="#210f05" fill-opacity="0.501961" cx="107" cy="87" rx="6" ry="6" />
<ellipse fill="#c9ae95" fill-opacity="0.501961" cx="97" cy="43" rx="4" ry="4" />
<ellipse fill="#f2c689" fill-opacity="0.501961" cx="63" cy="94" rx="3" ry="3" />
<ellipse fill="#0f0c0a" fill-opacity="0.501961" cx="3" cy="255" rx="6" ry="6" />
<ellipse fill="#000000" fill-opacity="0.501961" cx="33" cy="186" rx="3" ry="3" />
<ellipse fill="#7b6441" fill-opacity="0.501961" cx="46" cy="208" rx="3" ry="3" />
<ellipse fill="#be8759" fill-opacity="0.501961" cx="58" cy="114" rx="6" ry="6" />
<ellipse fill="#271d0f" fill-opacity="0.501961" cx="90" cy="206" rx="11" ry="11" />
<ellipse fill="#1f1407" fill-opacity="0.501961" cx="39" cy="171" rx="9" ry="9" />
<ellipse fill="#140500" fill-opacity="0.501961" cx="122" cy="144" rx="4" ry="4" />
<ellipse fill="#584a35" fill-opacity="0.501961" cx="171" cy="75" rx="9" ry="9" />
<ellipse fill="#342415" fill-opacity="0.501961" cx="55" cy="159" rx="4" ry="4" />
<ellipse fill="#1b1305" fill-opacity="0.501961" cx="57" cy="204" rx="11" ry="11" />
<ellipse fill="#edd5b5" fill-opacity="0.501961" cx="106" cy="66" rx="5" ry="5" />
<ellipse fill="#110900" fill-opacity="0.501961" cx="7" cy="176" rx="4" ry="4" />
<ellipse fill="#876746" fill-opacity="0.501961" cx="154" cy="123" rx="4" ry="4" />
<ellipse fill="#0f0500" fill-opacity="0.501961" cx="164" cy="0" rx="31" ry="31" />
<ellipse fill="#170e00" fill-opacity="0.501961" cx="75" cy="5" rx="27" ry="27" />
<ellipse fill="#2e0300" fill-opacity="0.501961" cx="112" cy="117" rx="3" ry="3" />
<ellipse fill="#180000" fill-opacity="0.501961" cx="101" cy="141" rx="3" ry="3" />
<ellipse fill="#826a57" fill-opacity="0.501961" cx="48" cy="117" rx="7" ry="7" />
<ellipse fill="#381505" fill-opacity="0.501961" cx="132" cy="133" rx="4" ry="4" />
<ellipse fill="#82725a" fill-opacity="0.501961" cx="43" cy="223" rx="4" ry="4" />
<ellipse fill="#693513" fill-opacity="0.501961" cx="89" cy="87" rx="3" ry="3" />
<ellipse fill="#7e614b" fill-opacity="0.501961" cx="124" cy="150" rx="4" ry="4" />
<ellipse fill="#fdd4a3" fill-opacity="0.501961" cx="63" cy="136" rx="2" ry="2" />
<ellipse fill="#4f2006" fill-opacity="0.501961" cx="94" cy="129" rx="3" ry="3" />
<ellipse fill="#645a49" fill-opacity="0.501961" cx="62" cy="210" rx="3" ry="3" />
<ellipse fill="#9da592" fill-opacity="0.501961" cx="10" cy="231" rx="5" ry="5" />
<ellipse fill="#665642" fill-opacity="0.501961" cx="84" cy="241" rx="4" ry="4" />
<ellipse fill="#cdb99b" fill-opacity="0.501961" cx="14" cy="180" rx="2" ry="2" />
<ellipse fill="#000000" fill-opacity="0.501961" cx="155" cy="213" rx="8" ry="8" />
<ellipse fill="#764f30" fill-opacity="0.501961" cx="60" cy="125" rx="7" ry="7" />
<ellipse fill="#290a00" fill-opacity="0.501961" cx="110" cy="102" rx="5" ry="5" />
<ellipse fill="#080000" fill-opacity="0.501961" cx="99" cy="185" rx="8" ry="8" />
<ellipse fill="#090000" fill-opacity="0.501961" cx="182" cy="217" rx="10" ry="10" />
<ellipse fill="#e9ddb8" fill-opacity="0.501961" cx="81" cy="79" rx="3" ry="3" />
<ellipse fill="#9e8a6e" fill-opacity="0.501961" cx="75" cy="58" rx="3" ry="3" />
<ellipse fill="#625342" fill-opacity="0.501961" cx="116" cy="173" rx="8" ry="8" />
<ellipse fill="#9c8971" fill-opacity="0.501961" cx="23" cy="184" rx="3" ry="3" />
<ellipse fill="#a27f5c" fill-opacity="0.501961" cx="99" cy="99" rx="5" ry="5" />
<ellipse fill="#594d2c" fill-opacity="0.501961" cx="141" cy="190" rx="3" ry="3" />
<ellipse fill="#daa87b" fill-opacity="0.501961" cx="115" cy="124" rx="6" ry="6" />
<ellipse fill="#ac8563" fill-opacity="0.501961" cx="116" cy="65" rx="8" ry="8" />
<ellipse fill="#0f0700" fill-opacity="0.501961" cx="169" cy="106" rx="7" ry="7" />
<ellipse fill="#1b1604" fill-opacity="0.501961" cx="194" cy="99" rx="15" ry="15" />
<ellipse fill="#755a44" fill-opacity="0.501961" cx="118" cy="80" rx="7" ry="7" />
<ellipse fill="#bf9773" fill-opacity="0.501961" cx="101" cy="146" rx="3" ry="3" />
<ellipse fill="#3b1500" fill-opacity="0.501961" cx="110" cy="119" rx="3" ry="3" />
<ellipse fill="#f4f5e0" fill-opacity="0.501961" cx="74" cy="94" rx="2" ry="2" />
<ellipse fill="#453725" fill-opacity="0.501961" cx="36" cy="123" rx="5" ry="5" />
<ellipse fill="#000000" fill-opacity="0.501961" cx="14" cy="231" rx="2" ry="2" />
<ellipse fill="#30240e" fill-opacity="0.501961" cx="172" cy="252" rx="10" ry="10" />
<ellipse fill="#6b452f" fill-opacity="0.501961" cx="71" cy="165" rx="4" ry="4" />
<ellipse fill="#6b5a48" fill-opacity="0.501961" cx="85" cy="158" rx="5" ry="5" />
<ellipse fill="#b3754b" fill-opacity="0.501961" cx="100" cy="110" rx="4" ry="4" />
<ellipse fill="#433a27" fill-opacity="0.501961" cx="71" cy="196" rx="8" ry="8" />
<ellipse fill="#000000" fill-opacity="0.501961" cx="9" cy="225" rx="3" ry="3" />
<ellipse fill="#36231c" fill-opacity="0.501961" cx="130" cy="29" rx="10" ry="10" />
<ellipse fill="#a79275" fill-opacity="0.501961" cx="68" cy="115" rx="6" ry="6" />
<ellipse fill="#000000" fill-opacity="0.501961" cx="188" cy="249" rx="6" ry="6" />
<ellipse fill="#957f67" fill-opacity="0.501961" cx="79" cy="139" rx="7" ry="7" />
<ellipse fill="#8c5d3d" fill-opacity="0.501961" cx="133" cy="139" rx="5" ry="5" />
<ellipse fill="#f9c588" fill-opacity="0.501961" cx="116" cy="112" rx="2" ry="2" />
<ellipse fill="#9a846f" fill-opacity="0.501961" cx="107" cy="175" rx="4" ry="4" />
<ellipse fill="#000000" fill-opacity="0.501961" cx="16" cy="223" rx="4" ry="4" />
<ellipse fill="#433327" fill-opacity="0.501961" cx="161" cy="43" rx="8" ry="8" />
<ellipse fill="#050000" fill-opacity="0.501961" cx="142" cy="148" rx="4" ry="4" />
<ellipse fill="#d5a47a" fill-opacity="0.501961" cx="137" cy="142" rx="2" ry="2" />
<ellipse fill="#5f513c" fill-opacity="0.501961" cx="45" cy="238" rx="5" ry="5" />
<ellipse fill="#2b1d09" fill-opacity="0.501961" cx="164" cy="194" rx="11" ry="11" />
<ellipse fill="#140000" fill-opacity="0.501961" cx="64" cy="81" rx="3" ry="3" />
<ellipse fill="#130600" fill-opacity="0.501961" cx="151" cy="110" rx="7" ry="7" />
<ellipse fill="#000000" fill-opacity="0.501961" cx="57" cy="214" rx="4" ry="4" />
<ellipse fill="#674930" fill-opacity="0.501961" cx="120" cy="43" rx="7" ry="7" />
<ellipse fill="#8e5230" fill-opacity="0.501961" cx="94" cy="110" rx="4" ry="4" />
<ellipse fill="#d1c5b0" fill-opacity="0.501961" cx="31" cy="180" rx="2" ry="2" />
<ellipse fill="#000000" fill-opacity="0.501961" cx="35" cy="189" rx="3" ry="3" />
<ellipse fill="#aa8473" fill-opacity="0.501961" cx="72" cy="177" rx="2" ry="2" />
<ellipse fill="#efe5c9" fill-opacity="0.501961" cx="90" cy="99" rx="3" ry="3" />
<ellipse fill="#c69163" fill-opacity="0.501961" cx="58" cy="122" rx="3" ry="3" />
<ellipse fill="#b08566" fill-opacity="0.501961" cx="96" cy="136" rx="4" ry="4" />
<ellipse fill="#1c0400" fill-opacity="0.501961" cx="66" cy="73" rx="3" ry="3" />
<ellipse fill="#d0915e" fill-opacity="0.501961" cx="133" cy="110" rx="3" ry="3" />
<ellipse fill="#1e1914" fill-opacity="0.501961" cx="22" cy="158" rx="5" ry="5" />
<ellipse fill="#1e1602" fill-opacity="0.501961" cx="148" cy="184" rx="8" ry="8" />
<ellipse fill="#968574" fill-opacity="0.501961" cx="49" cy="162" rx="3" ry="3" />
<ellipse fill="#836e55" fill-opacity="0.501961" cx="32" cy="131" rx="6" ry="6" />
<ellipse fill="#56462f" fill-opacity="0.501961" cx="72" cy="232" rx="4" ry="4" />
<ellipse fill="#2f1f16" fill-opacity="0.501961" cx="153" cy="71" rx="13" ry="13" />
</g>
</svg>