<svg xmlns="http://www.w3.org/2000/svg" version="1.1" width="804" height="1024">
<rect x="0" y="0" width="804" height="1024" fill="#3b2c1b" />
<g transform="scale(4.000000) translate(0.5 0.5)">
<ellipse fill="#ca966f" fill-opacity="0.501961" cx="94" cy="99" rx="42" ry="60" />
<ellipse fill="#000000" fill-opacity="0.501961" cx="95" cy="17" rx="200" ry="20" />
<ellipse fill="#040000" fill-opacity="0.501961" cx="131" cy="251" rx="72" ry="71" />
<ellipse fill="#a78d73" fill-opacity="0.501961" cx="56" cy="134" rx="30" ry="24" />
<ellipse fill="#1c0e05" fill-opacity="0.501961" cx="173" cy="93" rx="81" ry="19" />
<ellipse fill="#1b1100" fill-opacity="0.501961" cx="8" cy="47" rx="75" ry="62" />
<ellipse fill="#000000" fill-opacity="0.501961" cx="192" cy="0" rx="23" ry="79" />
<ellipse fill="#c09a7a" fill-opacity="0.501961" cx="107" cy="54" rx="19" ry="28" />
<ellipse fill="#efcea0" fill-opacity="0.501961" cx="82" cy="90" rx="10" ry="15" />
<ellipse fill="#251c10" fill-opacity="0.501961" cx="93" cy="242" rx="79" ry="95" />
<ellipse fill="#ffd5a8" fill-opacity="0.501961" cx="111" cy="130" rx="11" ry="8" />
<ellipse fill="#ad794a" fill-opacity="0.501961" cx="60" cy="70" rx="6" ry="25" />
<ellipse fill="#584a33" fill-opacity="0.501961" cx="166" cy="174" rx="75" ry="10" />
<ellipse fill="#4d3422" fill-opacity="0.501961" cx="123" cy="149" rx="60" ry="11" />
<ellipse fill="#79664e" fill-opacity="0.501961" cx="172" cy="76" rx="7" ry="26" />
<ellipse fill="#dcc3a4" fill-opacity="0.501961" cx="102" cy="64" rx="9" ry="16" />
<ellipse fill="#69786a" fill-opacity="0.501961" cx="1" cy="255" rx="18" ry="31" />
<ellipse fill="#432718" fill-opacity="0.501961" cx="128" cy="88" rx="41" ry="11" />
<ellipse fill="#503429" fill-opacity="0.501961" cx="119" cy="33" rx="38" ry="11" />
<ellipse fill="#c39c76" fill-opacity="0.501961" cx="85" cy="100" rx="20" ry="8" />
<ellipse fill="#3c2e1e" fill-opacity="0.501961" cx="71" cy="224" rx="12" ry="91" />
<ellipse fill="#170500" fill-opacity="0.501961" cx="127" cy="98" rx="19" ry="10" />
<ellipse fill="#160e00" fill-opacity="0.501961" cx="150" cy="246" rx="49" ry="66" />
<ellipse fill="#8f7864" fill-opacity="0.501961" cx="52" cy="147" rx="11" ry="23" />
<ellipse fill="#0a0100" fill-opacity="0.501961" cx="174" cy="0" rx="119" ry="23" />
<ellipse fill="#010000" fill-opacity="0.501961" cx="26" cy="219" rx="12" ry="27" />
<ellipse fill="#040000" fill-opacity="0.501961" cx="134" cy="163" rx="15" ry="9" />
<ellipse fill="#805636" fill-opacity="0.501961" cx="135" cy="120" rx="38" ry="5" />
<ellipse fill="#1f1805" fill-opacity="0.501961" cx="16" cy="44" rx="37" ry="99" />
<ellipse fill="#5f513f" fill-opacity="0.501961" cx="46" cy="230" rx="8" ry="23" />
<ellipse fill="#171100" fill-opacity="0.501961" cx="196" cy="83" rx="18" ry="71" />
<ellipse fill="#665347" fill-opacity="0.501961" cx="73" cy="186" rx="10" ry="11" />
<ellipse fill="#69452e" fill-opacity="0.501961" cx="132" cy="70" rx="9" ry="27" />
<ellipse fill="#281b0d" fill-opacity="0.501961" cx="73" cy="253" rx="85" ry="4" />
<ellipse fill="#6f5f44" fill-opacity="0.501961" cx="17" cy="182" rx="21" ry="5" />
<ellipse fill="#291611" fill-opacity="0.501961" cx="146" cy="51" rx="12" ry="27" />
<ellipse fill="#3b2d19" fill-opacity="0.501961" cx="24" cy="100" rx="30" ry="18" />
<ellipse fill="#0f0a05" fill-opacity="0.501961" cx="55" cy="194" rx="10" ry="23" />
<ellipse fill="#8c6f5d" fill-opacity="0.501961" cx="104" cy="171" rx="14" ry="6" />
<ellipse fill="#a17859" fill-opacity="0.501961" cx="99" cy="148" rx="26" ry="3" />
<ellipse fill="#693515" fill-opacity="0.501961" cx="97" cy="118" rx="17" ry="7" />
<ellipse fill="#150e00" fill-opacity="0.501961" cx="34" cy="4" rx="64" ry="46" />
<ellipse fill="#0c0000" fill-opacity="0.501961" cx="64" cy="85" rx="3" ry="7" />
<ellipse fill="#4e3b2c" fill-opacity="0.501961" cx="158" cy="96" rx="25" ry="7" />
<ellipse fill="#634227" fill-opacity="0.501961" cx="117" cy="42" rx="12" ry="10" />
<ellipse fill="#693c1d" fill-opacity="0.501961" cx="80" cy="105" rx="6" ry="11" />
<ellipse fill="#5f5332" fill-opacity="0.501961" cx="200" cy="202" rx="11" ry="22" />
<ellipse fill="#000000" fill-opacity="0.501961" cx="21" cy="151" rx="7" ry="9" />
<ellipse fill="#c69f7a" fill-opacity="0.501961" cx="93" cy="72" rx="13" ry="8" />
<ellipse fill="#e6a473" fill-opacity="0.501961" cx="133" cy="115" rx="9" ry="5" />
<ellipse fill="#2e2211" fill-opacity="0.501961" cx="82" cy="245" rx="34" ry="31" />
<ellipse fill="#190f07" fill-opacity="0.501961" cx="100" cy="237" rx="10" ry="64" />
<ellipse fill="#806751" fill-opacity="0.501961" cx="48" cy="133" rx="24" ry="14" />
<ellipse fill="#af9672" fill-opacity="0.501961" cx="70" cy="95" rx="4" ry="20" />
<ellipse fill="#cc9263" fill-opacity="0.501961" cx="126" cy="133" rx="4" ry="10" />
<ellipse fill="#684733" fill-opacity="0.501961" cx="86" cy="46" rx="8" ry="16" />
<ellipse fill="#5f5244" fill-opacity="0.501961" cx="136" cy="181" rx="8" ry="7" />
<ellipse fill="#d5b48b" fill-opacity="0.501961" cx="75" cy="94" rx="15" ry="3" />
<ellipse fill="#181004" fill-opacity="0.501961" cx="181" cy="110" rx="40" ry="10" />
<ellipse fill="#170300" fill-opacity="0.501961" cx="103" cy="88" rx="14" ry="4" />
<ellipse fill="#100600" fill-opacity="0.501961" cx="189" cy="17" rx="31" ry="34" />
<ellipse fill="#8b7662" fill-opacity="0.501961" cx="85" cy="153" rx="5" ry="12" />
<ellipse fill="#1d110c" fill-opacity="0.501961" cx="90" cy="189" rx="7" ry="19" />
<ellipse fill="#54482a" fill-opacity="0.501961" cx="191" cy="188" rx="13" ry="10" />
<ellipse fill="#060000" fill-opacity="0.501961" cx="122" cy="102" rx="10" ry="7" />
<ellipse fill="#a16e46" fill-opacity="0.501961" cx="89" cy="63" rx="11" ry="9" />
<ellipse fill="#0b0300" fill-opacity="0.501961" cx="118" cy="205" rx="18" ry="20" />
<ellipse fill="#8b6d55" fill-opacity="0.501961" cx="114" cy="77" rx="14" ry="6" />
<ellipse fill="#604f3e" fill-opacity="0.501961" cx="83" cy="193" rx="8" ry="6" />
<ellipse fill="#6c5943" fill-opacity="0.501961" cx="14" cy="167" rx="6" ry="14" />
<ellipse fill="#4f3c28" fill-opacity="0.501961" cx="10" cy="173" rx="3" ry="30" />
<ellipse fill="#140d00" fill-opacity="0.501961" cx="70" cy="19" rx="5" ry="46" />
<ellipse fill="#866341" fill-opacity="0.501961" cx="121" cy="53" rx="10" ry="8" />
<ellipse fill="#382d1d" fill-opacity="0.501961" cx="87" cy="244" rx="7" ry="31" />
<ellipse fill="#d3c09d" fill-opacity="0.501961" cx="78" cy="127" rx="9" ry="5" />
<ellipse fill="#2d1f09" fill-opacity="0.501961" cx="12" cy="86" rx="58" ry="4" />
<ellipse fill="#3d3114" fill-opacity="0.501961" cx="200" cy="157" rx="44" ry="27" />
<ellipse fill="#916f50" fill-opacity="0.501961" cx="161" cy="125" rx="9" ry="5" />
<ellipse fill="#160400" fill-opacity="0.501961" cx="117" cy="143" rx="9" ry="4" />
<ellipse fill="#271f09" fill-opacity="0.501961" cx="196" cy="118" rx="26" ry="26" />
<ellipse fill="#090000" fill-opacity="0.501961" cx="82" cy="174" rx="8" ry="8" />
<ellipse fill="#f9e3c4" fill-opacity="0.501961" cx="105" cy="65" rx="3" ry="7" />
<ellipse fill="#aa8f72" fill-opacity="0.501961" cx="54" cy="143" rx="8" ry="6" />
<ellipse fill="#c0ae90" fill-opacity="0.501961" cx="70" cy="114" rx="4" ry="12" />
<ellipse fill="#1c1308" fill-opacity="0.501961" cx="148" cy="235" rx="13" ry="62" />
<ellipse fill="#a6ae9d" fill-opacity="0.501961" cx="2" cy="231" rx="14" ry="5" />
<ellipse fill="#a36f4d" fill-opacity="0.501961" cx="131" cy="139" rx="10" ry="5" />
<ellipse fill="#2b1805" fill-opacity="0.501961" cx="0" cy="204" rx="0" ry="67" />
<ellipse fill="#726867" fill-opacity="0.501961" cx="36" cy="198" rx="3" ry="5" />
<ellipse fill="#ca4f25" fill-opacity="0.501961" cx="108" cy="95" rx="5" ry="3" />
<ellipse fill="#19130a" fill-opacity="0.501961" cx="27" cy="226" rx="13" ry="35" />
<ellipse fill="#352711" fill-opacity="0.501961" cx="5" cy="210" rx="16" ry="18" />
<ellipse fill="#e5c49e" fill-opacity="0.501961" cx="89" cy="101" rx="6" ry="8" />
<ellipse fill="#1b1401" fill-opacity="0.501961" cx="27" cy="55" rx="30" ry="15" />
<ellipse fill="#483c26" fill-opacity="0.501961" cx="140" cy="201" rx="3" ry="23" />
<ellipse fill="#776e51" fill-opacity="0.501961" cx="152" cy="154" rx="3" ry="10" />
<ellipse fill="#21110e" fill-opacity="0.501961" cx="105" cy="157" rx="18" ry="6" />
<ellipse fill="#544733" fill-opacity="0.501961" cx="42" cy="235" rx="5" ry="25" />
<ellipse fill="#0b0700" fill-opacity="0.501961" cx="73" cy="209" rx="10" ry="5" />
<ellipse fill="#0c0700" fill-opacity="0.501961" cx="14" cy="136" rx="7" ry="13" />
<ellipse fill="#2d2417" fill-opacity="0.501961" cx="9" cy="174" rx="49" ry="5" />
<ellipse fill="#50382a" fill-opacity="0.501961" cx="68" cy="162" rx="5" ry="33" />
<ellipse fill="#503d2d" fill-opacity="0.501961" cx="166" cy="73" rx="6" ry="26" />
<ellipse fill="#180e04" fill-opacity="0.501961" cx="38" cy="167" rx="9" ry="10" />
<ellipse fill="#000000" fill-opacity="0.501961" cx="155" cy="211" rx="5" ry="11" />
<ellipse fill="#392e1d" fill-opacity="0.501961" cx="180" cy="93" rx="4" ry="15" />
<ellipse fill="#59341a" fill-opacity="0.501961" cx="114" cy="118" rx="17" ry="3" />
<ellipse fill="#f2cda9" fill-opacity="0.501961" cx="102" cy="137" rx="5" ry="2" />
<ellipse fill="#000000" fill-opacity="0.501961" cx="136" cy="147" rx="11" ry="3" />
<ellipse fill="#eead6b" fill-opacity="0.501961" cx="61" cy="74" rx="2" ry="5" />
<ellipse fill="#9e7e54" fill-opacity="0.501961" cx="9" cy="150" rx="2" ry="6" />
<ellipse fill="#18100b" fill-opacity="0.501961" cx="30" cy="153" rx="5" ry="11" />
<ellipse fill="#89623d" fill-opacity="0.501961" cx="59" cy="77" rx="4" ry="32" />
<ellipse fill="#512901" fill-opacity="0.501961" cx="74" cy="74" rx="4" ry="8" />
<ellipse fill="#a07652" fill-opacity="0.501961" cx="87" cy="121" rx="37" ry="2" />
<ellipse fill="#91755c" fill-opacity="0.501961" cx="82" cy="142" rx="9" ry="10" />
<ellipse fill="#170f02" fill-opacity="0.501961" cx="67" cy="9" rx="13" ry="45" />
<ellipse fill="#776242" fill-opacity="0.501961" cx="22" cy="180" rx="3" ry="12" />
<ellipse fill="#1f0f03" fill-opacity="0.501961" cx="185" cy="106" rx="81" ry="2" />
<ellipse fill="#050000" fill-opacity="0.501961" cx="94" cy="183" rx="10" ry="8" />
<ellipse fill="#040000" fill-opacity="0.501961" cx="38" cy="121" rx="2" ry="8" />
<ellipse fill="#c2a78b" fill-opacity="0.501961" cx="99" cy="56" rx="5" ry="20" />
<ellipse fill="#21180a" fill-opacity="0.501961" cx="97" cy="248" rx="11" ry="24" />
<ellipse fill="#624d42" fill-opacity="0.501961" cx="93" cy="163" rx="5" ry="7" />
<ellipse fill="#100700" fill-opacity="0.501961" cx="167" cy="8" rx="33" ry="23" />
<ellipse fill="#000000" fill-opacity="0.501961" cx="0" cy="224" rx="23" ry="3" />
<ellipse fill="#766251" fill-opacity="0.501961" cx="112" cy="175" rx="10" ry="7" />
<ellipse fill="#af764d" fill-opacity="0.501961" cx="103" cy="109" rx="19" ry="3" />
<ellipse fill="#0d0200" fill-opacity="0.501961" cx="188" cy="255" rx="6" ry="51" />
<ellipse fill="#27231c" fill-opacity="0.501961" cx="53" cy="165" rx="2" ry="9" />
<ellipse fill="#4d3a22" fill-opacity="0.501961" cx="6" cy="203" rx="8" ry="22" />
<ellipse fill="#594b2f" fill-opacity="0.501961" cx="170" cy="181" rx="16" ry="4" />
<ellipse fill="#e6b887" fill-opacity="0.501961" cx="115" cy="125" rx="6" ry="7" />
<ellipse fill="#4f3a2c" fill-opacity="0.501961" cx="106" cy="30" rx="20" ry="5" />
<ellipse fill="#3e311a" fill-opacity="0.501961" cx="95" cy="224" rx="14" ry="5" />
<ellipse fill="#e19a5e" fill-opacity="0.501961" cx="132" cy="109" rx="5" ry="2" />
<ellipse fill="#69563f" fill-opacity="0.501961" cx="84" cy="241" rx="3" ry="6" />
<ellipse fill="#633219" fill-opacity="0.501961" cx="89" cy="135" rx="3" ry="6" />
<ellipse fill="#dfc59d" fill-opacity="0.501961" cx="81" cy="84" rx="5" ry="8" />
<ellipse fill="#010000" fill-opacity="0.501961" cx="39" cy="208" rx="5" ry="8" />
<ellipse fill="#4a2c1c" fill-opacity="0.501961" cx="64" cy="126" rx="3" ry="8" />
<ellipse fill="#261f11" fill-opacity="0.501961" cx="5" cy="233" rx="0" ry="38" />
<ellipse fill="#150e05" fill-opacity="0.501961" cx="0" cy="255" rx="19" ry="5" />
<ellipse fill="#947d66" fill-opacity="0.501961" cx="47" cy="124" rx="3" ry="22" />
<ellipse fill="#c3834d" fill-opacity="0.501961" cx="66" cy="67" rx="4" ry="4" />
<ellipse fill="#362c1c" fill-opacity="0.501961" cx="85" cy="200" rx="20" ry="8" />
<ellipse fill="#b48a63" fill-opacity="0.501961" cx="62" cy="114" rx="10" ry="5" />
<ellipse fill="#332218" fill-opacity="0.501961" cx="151" cy="81" rx="13" ry="17" />
<ellipse fill="#977f5c" fill-opacity="0.501961" cx="0" cy="178" rx="4" ry="3" />
<ellipse fill="#7d6e5c" fill-opacity="0.501961" cx="50" cy="144" rx="2" ry="28" />
<ellipse fill="#6e4524" fill-opacity="0.501961" cx="62" cy="100" rx="10" ry="4" />
<ellipse fill="#221808" fill-opacity="0.501961" cx="39" cy="46" rx="3" ry="89" />
<ellipse fill="#423323" fill-opacity="0.501961" cx="49" cy="255" rx="17" ry="8" />
<ellipse fill="#191103" fill-opacity="0.501961" cx="30" cy="10" rx="80" ry="26" />
<ellipse fill="#5c4b30" fill-opacity="0.501961" cx="73" cy="231" rx="3" ry="5" />
<ellipse fill="#171108" fill-opacity="0.501961" cx="35" cy="236" rx="6" ry="13" />
<ellipse fill="#311f15" fill-opacity="0.501961" cx="67" cy="158" rx="17" ry="4" />
<ellipse fill="#140c00" fill-opacity="0.501961" cx="56" cy="228" rx="7" ry="3" />
<ellipse fill="#7a5b40" fill-opacity="0.501961" cx="79" cy="57" rx="9" ry="4" />
<ellipse fill="#030000" fill-opacity="0.501961" cx="179" cy="217" rx="6" ry="11" />
<ellipse fill="#906747" fill-opacity="0.501961" cx="119" cy="150" rx="9" ry="3" />
<ellipse fill="#7b6753" fill-opacity="0.501961" cx="46" cy="155" rx="8" ry="5" />
<ellipse fill="#4c2c17" fill-opacity="0.501961" cx="63" cy="104" rx="3" ry="6" />
<ellipse fill="#000000" fill-opacity="0.501961" cx="127" cy="121" rx="5" ry="3" />
<ellipse fill="#2e220d" fill-opacity="0.501961" cx="27" cy="88" rx="30" ry="13" />
<ellipse fill="#7d593c" fill-opacity="0.501961" cx="106" cy="147" rx="15" ry="4" />
<ellipse fill="#56341f" fill-opacity="0.501961" cx="140" cy="94" rx="3" ry="11" />
<ellipse fill="#503320" fill-opacity="0.501961" cx="135" cy="66" rx="7" ry="23" />
<ellipse fill="#8c5f38" fill-opacity="0.501961" cx="54" cy="95" rx="1" ry="27" />
<ellipse fill="#100a05" fill-opacity="0.501961" cx="49" cy="183" rx="9" ry="10" />
<ellipse fill="#30230e" fill-opacity="0.501961" cx="173" cy="255" rx="11" ry="10" />
<ellipse fill="#000000" fill-opacity="0.501961" cx="99" cy="142" rx="4" ry="2" />
<ellipse fill="#160c00" fill-opacity="0.501961" cx="9" cy="131" rx="9" ry="6" />
<ellipse fill="#473a21" fill-opacity="0.501961" cx="169" cy="166" rx="19" ry="14" />
<ellipse fill="#957553" fill-opacity="0.501961" cx="13" cy="158" rx="2" ry="7" />
<ellipse fill="#362b19" fill-opacity="0.501961" cx="36" cy="99" rx="17" ry="8" />
<ellipse fill="#7e6346" fill-opacity="0.501961" cx="69" cy="115" rx="11" ry="3" />
<ellipse fill="#88745a" fill-opacity="0.501961" cx="35" cy="129" rx="2" ry="10" />
<ellipse fill="#251b07" fill-opacity="0.501961" cx="0" cy="67" rx="22" ry="30" />
<ellipse fill="#120a01" fill-opacity="0.501961" cx="143" cy="239" rx="19" ry="9" />
<ellipse fill="#1a1607" fill-opacity="0.501961" cx="198" cy="97" rx="19" ry="12" />
<ellipse fill="#31230e" fill-opacity="0.501961" cx="162" cy="196" rx="6" ry="13" />
<ellipse fill="#2b1e12" fill-opacity="0.501961" cx="4" cy="161" rx="10" ry="9" />
<ellipse fill="#130b02" fill-opacity="0.501961" cx="182" cy="27" rx="17" ry="24" />
<ellipse fill="#2d2514" fill-opacity="0.501961" cx="129" cy="219" rx="3" ry="8" />
<ellipse fill="#9c7f58" fill-opacity="0.501961" cx="18" cy="167" rx="3" ry="5" />
<ellipse fill="#64514b" fill-opacity="0.501961" cx="68" cy="174" rx="4" ry="5" />
<ellipse fill="#341f0f" fill-opacity="0.501961" cx="66" cy="86" rx="4" ry="5" />
<ellipse fill="#000000" fill-opacity="0.501961" cx="31" cy="213" rx="8" ry="6" />
<ellipse fill="#110b00" fill-opacity="0.501961" cx="78" cy="228" rx="2" ry="16" />
<ellipse fill="#190a05" fill-opacity="0.501961" cx="142" cy="130" rx="10" ry="5" />
<ellipse fill="#29221a" fill-opacity="0.501961" cx="61" cy="180" rx="1" ry="34" />
<ellipse fill="#988a69" fill-opacity="0.501961" cx="168" cy="120" rx="2" ry="6" />
<ellipse fill="#8d6949" fill-opacity="0.501961" cx="103" cy="39" rx="12" ry="4" />
<ellipse fill="#300f00" fill-opacity="0.501961" cx="119" cy="115" rx="3" ry="3" />
<ellipse fill="#362917" fill-opacity="0.501961" cx="121" cy="234" rx="4" ry="9" />
<ellipse fill="#4c2007" fill-opacity="0.501961" cx="95" cy="128" rx="3" ry="4" />
<ellipse fill="#683d21" fill-opacity="0.501961" cx="98" cy="118" rx="17" ry="5" />
<ellipse fill="#3b280d" fill-opacity="0.501961" cx="51" cy="202" rx="7" ry="7" />
<ellipse fill="#1b1107" fill-opacity="0.501961" cx="0" cy="152" rx="5" ry="12" />
<ellipse fill="#271c0b" fill-opacity="0.501961" cx="8" cy="207" rx="6" ry="9" />
<ellipse fill="#725f45" fill-opacity="0.501961" cx="174" cy="93" rx="5" ry="7" />
<ellipse fill="#9d856b" fill-opacity="0.501961" cx="62" cy="217" rx="2" ry="3" />
<ellipse fill="#39230f" fill-opacity="0.501961" cx="75" cy="69" rx="5" ry="6" />
<ellipse fill="#4f280b" fill-opacity="0.501961" cx="104" cy="122" rx="3" ry="4" />
<ellipse fill="#c1ac8c" fill-opacity="0.501961" cx="82" cy="65" rx="2" ry="5" />
<ellipse fill="#614837" fill-opacity="0.501961" cx="97" cy="33" rx="11" ry="5" />
<ellipse fill="#1c1305" fill-opacity="0.501961" cx="70" cy="228" rx="3" ry="23" />
<ellipse fill="#fece9c" fill-opacity="0.501961" cx="134" cy="118" rx="2" ry="3" />
<ellipse fill="#986845" fill-opacity="0.501961" cx="87" cy="122" rx="12" ry="4" />
<ellipse fill="#9e6f4c" fill-opacity="0.501961" cx="79" cy="95" rx="2" ry="9" />
<ellipse fill="#4f3929" fill-opacity="0.501961" cx="114" cy="168" rx="12" ry="4" />
<ellipse fill="#2d1d14" fill-opacity="0.501961" cx="144" cy="153" rx="8" ry="5" />
<ellipse fill="#322918" fill-opacity="0.501961" cx="14" cy="178" rx="8" ry="10" />
<ellipse fill="#3d2b25" fill-opacity="0.501961" cx="159" cy="49" rx="5" ry="17" />
<ellipse fill="#4f4229" fill-opacity="0.501961" cx="185" cy="183" rx="12" ry="9" />
<ellipse fill="#000000" fill-opacity="0.501961" cx="18" cy="194" rx="3" ry="6" />
<ellipse fill="#231a05" fill-opacity="0.501961" cx="42" cy="64" rx="21" ry="4" />
<ellipse fill="#7e5f3f" fill-opacity="0.501961" cx="14" cy="162" rx="4" ry="6" />
<ellipse fill="#120900" fill-opacity="0.501961" cx="10" cy="229" rx="0" ry="8" />
<ellipse fill="#c8834c" fill-opacity="0.501961" cx="120" cy="131" rx="4" ry="8" />
<ellipse fill="#0e0500" fill-opacity="0.501961" cx="178" cy="0" rx="80" ry="14" />
<ellipse fill="#221a10" fill-opacity="0.501961" cx="33" cy="236" rx="9" ry="11" />
<ellipse fill="#54462d" fill-opacity="0.501961" cx="195" cy="195" rx="11" ry="8" />
<ellipse fill="#93663c" fill-opacity="0.501961" cx="70" cy="82" rx="2" ry="17" />
<ellipse fill="#444639" fill-opacity="0.501961" cx="14" cy="247" rx="4" ry="18" />
<ellipse fill="#372b18" fill-opacity="0.501961" cx="3" cy="111" rx="25" ry="16" />
<ellipse fill="#a29484" fill-opacity="0.501961" cx="14" cy="178" rx="2" ry="4" />
<ellipse fill="#fffff8" fill-opacity="0.501961" cx="31" cy="180" rx="1" ry="2" />
<ellipse fill="#251807" fill-opacity="0.501961" cx="52" cy="64" rx="1" ry="58" />
<ellipse fill="#2f2410" fill-opacity="0.501961" cx="41" cy="89" rx="14" ry="14" />
<ellipse fill="#39200e" fill-opacity="0.501961" cx="72" cy="149" rx="3" ry="9" />
<ellipse fill="#43341b" fill-opacity="0.501961" cx="17" cy="211" rx="5" ry="7" />
<ellipse fill="#8b6644" fill-opacity="0.501961" cx="142" cy="121" rx="11" ry="2" />
<ellipse fill="#1b1304" fill-opacity="0.501961" cx="29" cy="31" rx="34" ry="28" />
<ellipse fill="#130600" fill-opacity="0.501961" cx="136" cy="166" rx="7" ry="8" />
<ellipse fill="#30230e" fill-opacity="0.501961" cx="37" cy="87" rx="25" ry="4" />
<ellipse fill="#130502" fill-opacity="0.501961" cx="158" cy="112" rx="10" ry="8" />
<ellipse fill="#e7ebea" fill-opacity="0.501961" cx="40" cy="140" rx="0" ry="3" />
<ellipse fill="#0b0200" fill-opacity="0.501961" cx="103" cy="216" rx="5" ry="5" />
<ellipse fill="#7d5a3b" fill-opacity="0.501961" cx="125" cy="64" rx="4" ry="21" />
<ellipse fill="#0a0000" fill-opacity="0.501961" cx="102" cy="188" rx="9" ry="6" />
<ellipse fill="#887860" fill-opacity="0.501961" cx="42" cy="221" rx="5" ry="5" />
<ellipse fill="#efe3c4" fill-opacity="0.501961" cx="88" cy="97" rx="3" ry="5" />
<ellipse fill="#6d6553" fill-opacity="0.501961" cx="149" cy="145" rx="3" ry="6" />
<ellipse fill="#372b18" fill-opacity="0.501961" cx="165" cy="136" rx="27" ry="8" />
<ellipse fill="#35190a" fill-opacity="0.501961" cx="135" cy="123" rx="9" ry="2" />
<ellipse fill="#d3b692" fill-opacity="0.501961" cx="81" cy="131" rx="4" ry="4" />
<ellipse fill="#332320" fill-opacity="0.501961" cx="120" cy="24" rx="23" ry="4" />
<ellipse fill="#1f1405" fill-opacity="0.501961" cx="51" cy="9" rx="0" ry="109" />
</g>
</svg>