<!-- This file contains code from the MDN -->
<svg viewBox="0 0 30 50" width="300" height="500" xmlns="http://www.w3.org/2000/svg">
    <g transform="scale(0.1 0.1)">
        <path fill="#222" stroke="white" stroke-width="0.1" d="M0,0h300v500h-300z" />

        <g transform="translate(0 0)">
            <!-- MoveTo and horizontal LineTo -->
            <path fill="none" stroke="#f00"
                d="M 10,10 h 10
                   m  0,10 h 10
                   m  0,10 h 10
                   M 40,20 h 10
                   m  0,10 h 10
                   m  0,10 h 10
                   m  0,10 h 10
                   M 50,50 h 10
                   m-20,10 h 10
                   m-20,10 h 10
                   m-20,10 h 10" />
        </g>

        <g transform="translate(150 50)">
            <rect x="-30" y="-30" width="60" height="60" />

            <rect x="-30" y="-30" width="60" height="60" fill="red"
                  transform="skewX(30) translate(50 10)" />
        </g>

        <g transform="translate(0 100)">
            <!-- LineTo commands with absolute coordinates -->
            <path fill="none" stroke="#f00"
                  d="M 10,10
                     L 90,90
                     V 10
                     H 50" />
        </g>

        <g transform="translate(100 100)">
            <!-- LineTo commands with relative coordinates -->
            <path fill="none" stroke="#f00"
                d="M 10,10
                   l 80,80
                   v -80
                   h -40" />
        </g>

        <g transform="translate(0 200)">
            <!-- Cubic Bézier curve with absolute coordinates -->
            <path fill="none" stroke="#f00"
                d="M 10,90
                   C 30,90 25,10 50,10
                   S 70,90 90,90" />

            <!-- Cubic Bézier curve with relative coordinates -->
            <path fill="none" stroke="#f00"
                d="M 110,90
                   c 20,0 15,-80 40,-80
                   s 20,80 40,80" />

            <!-- Highlight the curve vertex and control points -->
            <g>
                <!-- First cubic command control points -->
                <path stroke="#d3d3d3" d="M10,90,30,90" />
                <circle cx="30" cy="90" r="1.5"/>

                <path stroke="#d3d3d3" d="M50,10,25,10" />
                <circle cx="25" cy="10" r="1.5"/>

                <!-- Second smooth command control points (the first one is implicit) -->
                <path stroke="#d3d3d3" stroke-dasharray="2" d="M50,10,75,10" />
                <circle cx="75" cy="10" r="1.5" fill="#d3d3d3"/>

                <path stroke="#d3d3d3" d="M90,90,70,90" />
                <circle cx="70" cy="90" r="1.5" />

                <!-- curve vertex points -->
                <circle cx="10" cy="90" r="1.5"/>
                <circle cx="50" cy="10" r="1.5"/>
                <circle cx="90" cy="90" r="1.5"/>
            </g>

            <g transform="translate(100 0)">
                <!-- First cubic command control points -->
                <path stroke="#d3d3d3" d="M10,90,30,90" />
                <circle cx="30" cy="90" r="1.5"/>

                <path stroke="#d3d3d3" d="M50,10,25,10" />
                <circle cx="25" cy="10" r="1.5"/>

                <!-- Second smooth command control points (the first one is implicit) -->
                <path stroke="#d3d3d3" stroke-dasharray="2" d="M50,10,75,10" />
                <circle cx="75" cy="10" r="1.5" fill="#d3d3d3"/>

                <path stroke="#d3d3d3" d="M90,90,70,90" />
                <circle cx="70" cy="90" r="1.5" />

                <!-- curve vertex points -->
                <circle cx="10" cy="90" r="1.5"/>
                <circle cx="50" cy="10" r="1.5"/>
                <circle cx="90" cy="90" r="1.5"/>
            </g>
        </g>

        <g transform="translate(0 300)">
            <!-- Quadratic Bézier curve with implicit repetition -->
            <path fill="none" stroke="red"
                d="M 10,50
                   Q 25,25 40,50
                   t 30,0 30,0 30,0 30,0 30,0" />

            <!-- Highlight the curve vertex and control points -->
            <polyline points="10,50 25,25 40,50" stroke="rgba(0,0,0,.2)" fill="none" />
            <circle cx="25" cy="25" r="1.5" />

            <!-- Curve vertex points -->
            <circle cx="10" cy="50" r="1.5"/>
            <circle cx="40" cy="50" r="1.5"/>

            <g id="SmoothQuadraticDown">
                <polyline points="40,50 55,75 70,50" stroke="rgba(0,0,0,.2)" stroke-dasharray="2" fill="none" />
                <circle cx="55" cy="75" r="1.5" fill="lightgrey" />
                <circle cx="70" cy="50" r="1.5" />
            </g>

            <g id="SmoothQuadraticUp">
                <polyline points="70,50 85,25 100,50" stroke="rgba(0,0,0,.2)" stroke-dasharray="2" fill="none" />
                <circle cx="85" cy="25" r="1.5" fill="lightgrey" />
                <circle cx="100" cy="50" r="1.5" />
            </g>

            <use xlink:href="#SmoothQuadraticDown" x="60" />
            <use xlink:href="#SmoothQuadraticUp"   x="60" />
            <use xlink:href="#SmoothQuadraticDown" x="120" />
        </g>

        <g transform="translate(200 100)">
            <!-- Using g to inherit presentation attributes -->
            <g fill="white" stroke="green" stroke-width="5">
                <circle cx="40" cy="40" r="25" />
                <circle cx="60" cy="60" r="25" />
            </g>
        </g>

        <g transform="translate(200 200)">
            <!-- Default value for fill-rule -->
            <polygon fill-rule="nonzero" stroke="red"
                     points="50,0 21,90 98,35 2,35 79,90"/>
        </g>

        <g transform="translate(200 300)">
            <!--
            The points in the center of the shape has 2
            path segments (materialized by the red stroke)
            between them and Infinity therefor there are
            considered outside the shape, that's why the
            interior of the star is hollow (but not the branch).
            -->
            <polygon fill-rule="evenodd" stroke="red"
                     points="50,0 21,90 98,35 02,35 79,90"/>
        </g>

        <g transform="translate(0 400)">
            <g transform="scale(10 10)">
                <!--
                An open shape with the last point of
                the path different to the first one
                -->
                <path stroke="red"
                    d="M 5,1
                       l -4,8 8,0" />

                <!--
                An open shape with the last point of
                the path matching the first one
                -->
                <path stroke="red"
                    d="M 15,1
                       l -4,8 8,0 -4,-8" />

                <!--
                A closed shape with the last point of
                the path different to the first one
                -->
                <path stroke="red"
                    d="M 25,1
                       l -4,8 8,0
                       z" />
            </g>
        </g>
    </g>
</svg>