<svg xmlns="http://www.w3.org/2000/svg" version="1.1" width="804" height="1024">
<rect x="0" y="0" width="804" height="1024" fill="#3b2c1b" />
<g transform="scale(4.000000) translate(0.5 0.5)">
<rect fill="#cd9971" fill-opacity="0.501961" x="54" y="46" width="74" height="105" />
<rect fill="#000000" fill-opacity="0.501961" x="0" y="0" width="201" height="37" />
<rect fill="#010000" fill-opacity="0.501961" x="90" y="185" width="102" height="71" />
<rect fill="#926e53" fill-opacity="0.501961" x="30" y="109" width="109" height="44" />
<rect fill="#d5af8f" fill-opacity="0.501961" x="92" y="29" width="23" height="51" />
<rect fill="#000000" fill-opacity="0.501961" x="100" y="82" width="28" height="25" />
<rect fill="#120b00" fill-opacity="0.501961" x="0" y="0" width="80" height="76" />
<rect fill="#030000" fill-opacity="0.501961" x="179" y="0" width="22" height="130" />
<rect fill="#e6c498" fill-opacity="0.501961" x="71" y="78" width="21" height="27" />
<rect fill="#372513" fill-opacity="0.501961" x="91" y="140" width="110" height="26" />
<rect fill="#98826b" fill-opacity="0.501961" x="42" y="113" width="19" height="52" />
<rect fill="#000000" fill-opacity="0.501961" x="17" y="197" width="21" height="59" />
<rect fill="#1e1601" fill-opacity="0.501961" x="0" y="0" width="45" height="121" />
<rect fill="#fdcd9e" fill-opacity="0.501961" x="103" y="123" width="19" height="15" />
<rect fill="#684835" fill-opacity="0.501961" x="82" y="25" width="49" height="23" />
<rect fill="#94a998" fill-opacity="0.501961" x="1" y="228" width="14" height="23" />
<rect fill="#1b1203" fill-opacity="0.501961" x="55" y="199" width="140" height="57" />
<rect fill="#5e512f" fill-opacity="0.501961" x="179" y="174" width="22" height="31" />
<rect fill="#7d4d2b" fill-opacity="0.501961" x="79" y="111" width="72" height="13" />
<rect fill="#88705f" fill-opacity="0.501961" x="95" y="167" width="28" height="12" />
<rect fill="#000000" fill-opacity="0.501961" x="115" y="91" width="17" height="18" />
<rect fill="#000000" fill-opacity="0.501961" x="143" y="102" width="35" height="13" />
<rect fill="#e8bd93" fill-opacity="0.501961" x="86" y="96" width="18" height="12" />
<rect fill="#74614b" fill-opacity="0.501961" x="166" y="56" width="12" height="44" />
<rect fill="#060401" fill-opacity="0.501961" x="42" y="172" width="21" height="31" />
<rect fill="#8c613a" fill-opacity="0.501961" x="56" y="47" width="10" height="88" />
<rect fill="#080000" fill-opacity="0.501961" x="80" y="0" width="121" height="21" />
<rect fill="#c5b89a" fill-opacity="0.501961" x="67" y="104" width="8" height="26" />
<rect fill="#fdbb82" fill-opacity="0.501961" x="127" y="108" width="9" height="11" />
<rect fill="#d3b99b" fill-opacity="0.501961" x="95" y="41" width="12" height="36" />
<rect fill="#a67d59" fill-opacity="0.501961" x="154" y="120" width="16" height="9" />
<rect fill="#0e0201" fill-opacity="0.501961" x="126" y="145" width="20" height="26" />
<rect fill="#230000" fill-opacity="0.501961" x="90" y="83" width="23" height="11" />
<rect fill="#000000" fill-opacity="0.501961" x="83" y="175" width="20" height="13" />
<rect fill="#281a05" fill-opacity="0.501961" x="0" y="82" width="69" height="9" />
<rect fill="#4b372b" fill-opacity="0.501961" x="65" y="131" width="10" height="64" />
<rect fill="#4f4426" fill-opacity="0.501961" x="150" y="145" width="36" height="43" />
<rect fill="#6f472f" fill-opacity="0.501961" x="126" y="47" width="12" height="46" />
<rect fill="#060400" fill-opacity="0.501961" x="11" y="124" width="13" height="28" />
<rect fill="#68583c" fill-opacity="0.501961" x="1" y="178" width="32" height="13" />
<rect fill="#86745f" fill-opacity="0.501961" x="26" y="127" width="38" height="18" />
<rect fill="#cdbb9c" fill-opacity="0.501961" x="71" y="123" width="15" height="12" />
<rect fill="#978971" fill-opacity="0.501961" x="39" y="217" width="8" height="10" />
<rect fill="#6b4020" fill-opacity="0.501961" x="74" y="97" width="11" height="21" />
<rect fill="#130100" fill-opacity="0.501961" x="131" y="124" width="16" height="11" />
<rect fill="#0e0600" fill-opacity="0.501961" x="168" y="0" width="33" height="51" />
<rect fill="#000000" fill-opacity="0.501961" x="63" y="37" width="12" height="17" />
<rect fill="#3f2921" fill-opacity="0.501961" x="92" y="23" width="55" height="13" />
<rect fill="#6d573d" fill-opacity="0.501961" x="9" y="150" width="11" height="22" />
<rect fill="#3a1700" fill-opacity="0.501961" x="72" y="62" width="5" height="20" />
<rect fill="#0c0300" fill-opacity="0.501961" x="103" y="182" width="24" height="41" />
<rect fill="#552f15" fill-opacity="0.501961" x="83" y="114" width="38" height="6" />
<rect fill="#2b1713" fill-opacity="0.501961" x="142" y="27" width="15" height="78" />
<rect fill="#0b0804" fill-opacity="0.501961" x="17" y="144" width="18" height="17" />
<rect fill="#070000" fill-opacity="0.501961" x="182" y="227" width="19" height="29" />
<rect fill="#100700" fill-opacity="0.501961" x="149" y="197" width="38" height="26" />
<rect fill="#deba8c" fill-opacity="0.501961" x="78" y="72" width="10" height="23" />
<rect fill="#f2dcbc" fill-opacity="0.501961" x="102" y="61" width="9" height="11" />
<rect fill="#cf8e5f" fill-opacity="0.501961" x="125" y="140" width="16" height="3" />
<rect fill="#5b4c3d" fill-opacity="0.501961" x="70" y="182" width="14" height="23" />
<rect fill="#100800" fill-opacity="0.501961" x="0" y="126" width="16" height="15" />
<rect fill="#4e442e" fill-opacity="0.501961" x="138" y="173" width="6" height="40" />
<rect fill="#2c2206" fill-opacity="0.501961" x="171" y="106" width="30" height="45" />
<rect fill="#32281a" fill-opacity="0.501961" x="4" y="236" width="112" height="20" />
<rect fill="#86725e" fill-opacity="0.501961" x="38" y="135" width="26" height="22" />
<rect fill="#5f5133" fill-opacity="0.501961" x="191" y="195" width="10" height="24" />
<rect fill="#685843" fill-opacity="0.501961" x="42" y="226" width="7" height="23" />
<rect fill="#180000" fill-opacity="0.501961" x="95" y="141" width="30" height="3" />
<rect fill="#130b01" fill-opacity="0.501961" x="30" y="159" width="15" height="19" />
<rect fill="#362a18" fill-opacity="0.501961" x="0" y="94" width="41" height="30" />
<rect fill="#161000" fill-opacity="0.501961" x="13" y="35" width="44" height="24" />
<rect fill="#b6a598" fill-opacity="0.501961" x="36" y="197" width="4" height="4" />
<rect fill="#854827" fill-opacity="0.501961" x="103" y="91" width="7" height="34" />
<rect fill="#6b4a38" fill-opacity="0.501961" x="85" y="128" width="12" height="42" />
<rect fill="#140d00" fill-opacity="0.501961" x="143" y="178" width="13" height="22" />
<rect fill="#1c0900" fill-opacity="0.501961" x="109" y="100" width="61" height="7" />
<rect fill="#050100" fill-opacity="0.501961" x="9" y="217" width="29" height="10" />
<rect fill="#6f4a32" fill-opacity="0.501961" x="74" y="42" width="20" height="20" />
<rect fill="#000000" fill-opacity="0.501961" x="22" y="202" width="22" height="13" />
<rect fill="#170f00" fill-opacity="0.501961" x="39" y="0" width="56" height="31" />
<rect fill="#867767" fill-opacity="0.501961" x="61" y="211" width="5" height="10" />
<rect fill="#be9671" fill-opacity="0.501961" x="53" y="110" width="16" height="9" />
<rect fill="#070000" fill-opacity="0.501961" x="76" y="165" width="14" height="15" />
<rect fill="#000000" fill-opacity="0.501961" x="122" y="118" width="8" height="6" />
<rect fill="#d6b88e" fill-opacity="0.501961" x="61" y="92" width="15" height="5" />
<rect fill="#1e100d" fill-opacity="0.501961" x="91" y="154" width="49" height="11" />
<rect fill="#af8764" fill-opacity="0.501961" x="91" y="39" width="10" height="30" />
<rect fill="#b48a65" fill-opacity="0.501961" x="109" y="55" width="14" height="19" />
<rect fill="#44361e" fill-opacity="0.501961" x="87" y="220" width="22" height="9" />
<rect fill="#b07b4a" fill-opacity="0.501961" x="55" y="68" width="8" height="17" />
<rect fill="#714d31" fill-opacity="0.501961" x="103" y="33" width="22" height="18" />
<rect fill="#615549" fill-opacity="0.501961" x="129" y="175" width="12" height="12" />
<rect fill="#967154" fill-opacity="0.501961" x="79" y="145" width="41" height="5" />
<rect fill="#2c210b" fill-opacity="0.501961" x="9" y="78" width="47" height="17" />
<rect fill="#665844" fill-opacity="0.501961" x="147" y="140" width="8" height="20" />
<rect fill="#645335" fill-opacity="0.501961" x="183" y="185" width="9" height="14" />
<rect fill="#1e0d00" fill-opacity="0.501961" x="109" y="142" width="21" height="5" />
<rect fill="#5a2e0f" fill-opacity="0.501961" x="94" y="123" width="10" height="5" />
<rect fill="#372911" fill-opacity="0.501961" x="3" y="202" width="20" height="16" />
<rect fill="#c69872" fill-opacity="0.501961" x="99" y="127" width="31" height="12" />
<rect fill="#8c7367" fill-opacity="0.501961" x="68" y="177" width="9" height="4" />
<rect fill="#241b0f" fill-opacity="0.501961" x="50" y="198" width="55" height="14" />
<rect fill="#210d02" fill-opacity="0.501961" x="73" y="149" width="5" height="27" />
<rect fill="#2f210c" fill-opacity="0.501961" x="159" y="184" width="11" height="26" />
<rect fill="#c59061" fill-opacity="0.501961" x="81" y="65" width="14" height="13" />
<rect fill="#af9368" fill-opacity="0.501961" x="7" y="145" width="4" height="6" />
<rect fill="#1e1814" fill-opacity="0.501961" x="52" y="158" width="16" height="7" />
<rect fill="#e7bf91" fill-opacity="0.501961" x="111" y="119" width="8" height="15" />
<rect fill="#070000" fill-opacity="0.501961" x="62" y="79" width="5" height="8" />
<rect fill="#402c1f" fill-opacity="0.501961" x="138" y="84" width="31" height="20" />
<rect fill="#4c3e2a" fill-opacity="0.501961" x="82" y="215" width="5" height="33" />
<rect fill="#453829" fill-opacity="0.501961" x="8" y="166" width="8" height="33" />
<rect fill="#b27138" fill-opacity="0.501961" x="117" y="126" width="15" height="6" />
<rect fill="#433027" fill-opacity="0.501961" x="63" y="122" width="6" height="11" />
<rect fill="#1a1309" fill-opacity="0.501961" x="18" y="225" width="22" height="27" />
<rect fill="#79654a" fill-opacity="0.501961" x="73" y="229" width="3" height="7" />
<rect fill="#110a00" fill-opacity="0.501961" x="12" y="184" width="8" height="8" />
<rect fill="#8d6847" fill-opacity="0.501961" x="112" y="45" width="3" height="35" />
<rect fill="#586150" fill-opacity="0.501961" x="1" y="237" width="17" height="14" />
<rect fill="#432d1c" fill-opacity="0.501961" x="89" y="151" width="99" height="5" />
<rect fill="#7d5438" fill-opacity="0.501961" x="86" y="30" width="6" height="43" />
<rect fill="#d18e54" fill-opacity="0.501961" x="63" y="64" width="7" height="6" />
<rect fill="#150f00" fill-opacity="0.501961" x="180" y="17" width="21" height="65" />
<rect fill="#281905" fill-opacity="0.501961" x="51" y="57" width="2" height="65" />
<rect fill="#1a1203" fill-opacity="0.501961" x="6" y="5" width="72" height="42" />
<rect fill="#857361" fill-opacity="0.501961" x="49" y="115" width="3" height="55" />
<rect fill="#0f0600" fill-opacity="0.501961" x="142" y="0" width="59" height="28" />
<rect fill="#584a30" fill-opacity="0.501961" x="155" y="174" width="24" height="10" />
<rect fill="#887460" fill-opacity="0.501961" x="81" y="135" width="6" height="29" />
<rect fill="#865d42" fill-opacity="0.501961" x="110" y="150" width="28" height="2" />
<rect fill="#a99578" fill-opacity="0.501961" x="72" y="57" width="6" height="3" />
<rect fill="#b38357" fill-opacity="0.501961" x="109" y="106" width="6" height="9" />
<rect fill="#715139" fill-opacity="0.501961" x="94" y="79" width="38" height="5" />
<rect fill="#5d5143" fill-opacity="0.501961" x="106" y="175" width="39" height="6" />
<rect fill="#251200" fill-opacity="0.501961" x="70" y="141" width="4" height="10" />
<rect fill="#0f0a00" fill-opacity="0.501961" x="38" y="107" width="2" height="25" />
<rect fill="#371500" fill-opacity="0.501961" x="108" y="138" width="11" height="4" />
<rect fill="#321f16" fill-opacity="0.501961" x="134" y="30" width="25" height="34" />
<rect fill="#261c0a" fill-opacity="0.501961" x="0" y="47" width="5" height="128" />
<rect fill="#020000" fill-opacity="0.501961" x="127" y="190" width="9" height="21" />
<rect fill="#241909" fill-opacity="0.501961" x="87" y="226" width="40" height="30" />
<rect fill="#867359" fill-opacity="0.501961" x="22" y="173" width="4" height="14" />
<rect fill="#463721" fill-opacity="0.501961" x="177" y="84" width="8" height="10" />
<rect fill="#ccb290" fill-opacity="0.501961" x="6" y="183" width="3" height="4" />
<rect fill="#371300" fill-opacity="0.501961" x="129" y="132" width="5" height="9" />
<rect fill="#4b372a" fill-opacity="0.501961" x="161" y="42" width="9" height="57" />
<rect fill="#796950" fill-opacity="0.501961" x="168" y="62" width="11" height="7" />
<rect fill="#7c6b5b" fill-opacity="0.501961" x="91" y="165" width="11" height="8" />
<rect fill="#cdbeab" fill-opacity="0.501961" x="96" y="43" width="4" height="11" />
<rect fill="#090000" fill-opacity="0.501961" x="176" y="213" width="17" height="14" />
<rect fill="#8a7761" fill-opacity="0.501961" x="72" y="132" width="9" height="10" />
<rect fill="#be916c" fill-opacity="0.501961" x="123" y="112" width="20" height="5" />
<rect fill="#110a02" fill-opacity="0.501961" x="53" y="177" width="5" height="42" />
<rect fill="#9c7554" fill-opacity="0.501961" x="66" y="95" width="19" height="7" />
<rect fill="#0d0700" fill-opacity="0.501961" x="68" y="206" width="7" height="18" />
<rect fill="#050400" fill-opacity="0.501961" x="15" y="141" width="3" height="15" />
<rect fill="#352817" fill-opacity="0.501961" x="33" y="201" width="68" height="4" />
<rect fill="#8d7463" fill-opacity="0.501961" x="102" y="72" width="17" height="9" />
<rect fill="#bda48c" fill-opacity="0.501961" x="53" y="128" width="2" height="28" />
<rect fill="#e7e0c6" fill-opacity="0.501961" x="76" y="81" width="6" height="6" />
<rect fill="#9f866f" fill-opacity="0.501961" x="104" y="172" width="7" height="6" />
<rect fill="#463920" fill-opacity="0.501961" x="175" y="161" width="26" height="30" />
<rect fill="#7d7b5d" fill-opacity="0.501961" x="143" y="120" width="9" height="5" />
<rect fill="#693a0b" fill-opacity="0.501961" x="71" y="68" width="3" height="18" />
<rect fill="#140c02" fill-opacity="0.501961" x="176" y="14" width="15" height="44" />
<rect fill="#907b65" fill-opacity="0.501961" x="47" y="102" width="2" height="43" />
<rect fill="#ad9270" fill-opacity="0.501961" x="11" y="191" width="3" height="4" />
<rect fill="#eee2c8" fill-opacity="0.501961" x="13" y="178" width="2" height="3" />
<rect fill="#512205" fill-opacity="0.501961" x="91" y="128" width="7" height="4" />
<rect fill="#a49376" fill-opacity="0.501961" x="35" y="120" width="2" height="9" />
<rect fill="#0e0700" fill-opacity="0.501961" x="125" y="234" width="29" height="10" />
<rect fill="#200c00" fill-opacity="0.501961" x="87" y="86" width="30" height="4" />
<rect fill="#a9754f" fill-opacity="0.501961" x="88" y="108" width="32" height="4" />
<rect fill="#686251" fill-opacity="0.501961" x="143" y="170" width="7" height="5" />
<rect fill="#140900" fill-opacity="0.501961" x="8" y="175" width="4" height="10" />
<rect fill="#090500" fill-opacity="0.501961" x="18" y="193" width="15" height="11" />
<rect fill="#3e301a" fill-opacity="0.501961" x="156" y="127" width="32" height="41" />
<rect fill="#1b0f04" fill-opacity="0.501961" x="137" y="103" width="60" height="9" />
<rect fill="#2f1001" fill-opacity="0.501961" x="106" y="117" width="9" height="4" />
<rect fill="#0d0900" fill-opacity="0.501961" x="65" y="46" width="7" height="10" />
<rect fill="#ddceb1" fill-opacity="0.501961" x="68" y="103" width="5" height="7" />
<rect fill="#cdac87" fill-opacity="0.501961" x="80" y="126" width="7" height="8" />
<rect fill="#341703" fill-opacity="0.501961" x="61" y="99" width="6" height="7" />
<rect fill="#4a2c16" fill-opacity="0.501961" x="130" y="122" width="14" height="5" />
<rect fill="#594130" fill-opacity="0.501961" x="69" y="129" width="3" height="62" />
<rect fill="#9a7f5c" fill-opacity="0.501961" x="18" y="165" width="4" height="8" />
<rect fill="#3b2f20" fill-opacity="0.501961" x="42" y="192" width="5" height="30" />
<rect fill="#36231c" fill-opacity="0.501961" x="117" y="21" width="18" height="17" />
<rect fill="#000000" fill-opacity="0.501961" x="13" y="231" width="7" height="2" />
<rect fill="#74522f" fill-opacity="0.501961" x="71" y="112" width="4" height="8" />
<rect fill="#de4c20" fill-opacity="0.501961" x="105" y="93" width="7" height="4" />
<rect fill="#816a4b" fill-opacity="0.501961" x="19" y="206" width="2" height="6" />
<rect fill="#231602" fill-opacity="0.501961" x="155" y="193" width="29" height="10" />
<rect fill="#634a33" fill-opacity="0.501961" x="50" y="151" width="12" height="9" />
<rect fill="#261e11" fill-opacity="0.501961" x="21" y="119" width="4" height="49" />
<rect fill="#bcc2b0" fill-opacity="0.501961" x="1" y="228" width="12" height="8" />
<rect fill="#030200" fill-opacity="0.501961" x="65" y="147" width="2" height="12" />
<rect fill="#000000" fill-opacity="0.501961" x="0" y="223" width="20" height="4" />
<rect fill="#1c1402" fill-opacity="0.501961" x="25" y="29" width="30" height="40" />
<rect fill="#89542e" fill-opacity="0.501961" x="53" y="99" width="3" height="29" />
<rect fill="#716354" fill-opacity="0.501961" x="33" y="137" width="15" height="14" />
<rect fill="#e0c597" fill-opacity="0.501961" x="116" y="118" width="4" height="6" />
<rect fill="#070000" fill-opacity="0.501961" x="87" y="177" width="13" height="13" />
<rect fill="#696260" fill-opacity="0.501961" x="34" y="193" width="3" height="10" />
<rect fill="#1e0900" fill-opacity="0.501961" x="113" y="115" width="7" height="3" />
<rect fill="#f0e1c2" fill-opacity="0.501961" x="86" y="93" width="7" height="9" />
<rect fill="#d9ba99" fill-opacity="0.501961" x="107" y="122" width="8" height="11" />
<rect fill="#362a17" fill-opacity="0.501961" x="0" y="100" width="38" height="21" />
<rect fill="#92633c" fill-opacity="0.501961" x="104" y="140" width="7" height="4" />
<rect fill="#0f0600" fill-opacity="0.501961" x="131" y="161" width="18" height="8" />
<rect fill="#b5a89a" fill-opacity="0.501961" x="30" y="179" width="5" height="4" />
<rect fill="#bba689" fill-opacity="0.501961" x="38" y="219" width="4" height="4" />
<rect fill="#4e3c2a" fill-opacity="0.501961" x="35" y="248" width="12" height="8" />
<rect fill="#b87d47" fill-opacity="0.501961" x="65" y="56" width="2" height="13" />
<rect fill="#7a6f64" fill-opacity="0.501961" x="54" y="165" width="4" height="6" />
<rect fill="#5e5859" fill-opacity="0.501961" x="49" y="215" width="6" height="10" />
<rect fill="#221103" fill-opacity="0.501961" x="58" y="64" width="2" height="9" />
<rect fill="#8e8060" fill-opacity="0.501961" x="167" y="114" width="3" height="12" />
<rect fill="#282014" fill-opacity="0.501961" x="24" y="171" width="39" height="5" />
<rect fill="#947652" fill-opacity="0.501961" x="14" y="157" width="4" height="12" />
<rect fill="#e4dcd2" fill-opacity="0.501961" x="52" y="125" width="2" height="4" />
<rect fill="#281f0a" fill-opacity="0.501961" x="176" y="102" width="25" height="34" />
<rect fill="#5a492f" fill-opacity="0.501961" x="16" y="200" width="3" height="10" />
<rect fill="#f4b681" fill-opacity="0.501961" x="132" y="117" width="7" height="4" />
<rect fill="#1b150e" fill-opacity="0.501961" x="57" y="167" width="7" height="40" />
<rect fill="#d2c7a6" fill-opacity="0.501961" x="149" y="147" width="6" height="2" />
<rect fill="#150c04" fill-opacity="0.501961" x="9" y="162" width="3" height="8" />
<rect fill="#000000" fill-opacity="0.501961" x="152" y="205" width="8" height="15" />
<rect fill="#140600" fill-opacity="0.501961" x="150" y="105" width="18" height="13" />
<rect fill="#22170f" fill-opacity="0.501961" x="111" y="154" width="12" height="15" />
<rect fill="#000000" fill-opacity="0.501961" x="35" y="189" width="5" height="5" />
<rect fill="#ab8b6e" fill-opacity="0.501961" x="52" y="139" width="8" height="10" />
<rect fill="#ae7a50" fill-opacity="0.501961" x="86" y="66" width="7" height="24" />
<rect fill="#080300" fill-opacity="0.501961" x="75" y="234" width="6" height="8" />
<rect fill="#000000" fill-opacity="0.501961" x="52" y="210" width="8" height="7" />
<rect fill="#110801" fill-opacity="0.501961" x="165" y="3" width="14" height="38" />
<rect fill="#261a05" fill-opacity="0.501961" x="0" y="65" width="53" height="17" />
<rect fill="#917963" fill-opacity="0.501961" x="41" y="115" width="10" height="8" />
<rect fill="#704f34" fill-opacity="0.501961" x="126" y="48" width="6" height="40" />
<rect fill="#c3bcad" fill-opacity="0.501961" x="47" y="154" width="2" height="5" />
<rect fill="#1b1203" fill-opacity="0.501961" x="68" y="11" width="5" height="54" />
<rect fill="#54432e" fill-opacity="0.501961" x="88" y="218" width="4" height="11" />
<rect fill="#2d2313" fill-opacity="0.501961" x="136" y="200" width="9" height="25" />
<rect fill="#5b4c32" fill-opacity="0.501961" x="26" y="125" width="10" height="6" />
<rect fill="#000000" fill-opacity="0.501961" x="15" y="220" width="5" height="17" />
<rect fill="#140e04" fill-opacity="0.501961" x="67" y="240" width="12" height="6" />
<rect fill="#594432" fill-opacity="0.501961" x="47" y="118" width="2" height="10" />
<rect fill="#2d241e" fill-opacity="0.501961" x="123" y="163" width="8" height="25" />
<rect fill="#000000" fill-opacity="0.501961" x="30" y="184" width="5" height="5" />
<rect fill="#c3a87f" fill-opacity="0.501961" x="45" y="209" width="3" height="2" />
</g>
</svg>