<svg xmlns="http://www.w3.org/2000/svg" version="1.1" width="804" height="1024">
<rect x="0" y="0" width="804" height="1024" fill="#3b2c1b" />
<g transform="scale(4.000000) translate(0.5 0.5)">
<g transform="translate(90 99) rotate(2) scale(73 103)"><rect fill="#cf9c73" fill-opacity="0.501961" x="-0.5" y="-0.5" width="1" height="1" /></g>
<g transform="translate(70 85) rotate(190) scale(3 31)"><rect fill="#8b6033" fill-opacity="0.501961" x="-0.5" y="-0.5" width="1" height="1" /></g>
<g transform="translate(33 106) rotate(254) scale(72 1)"><rect fill="#302514" fill-opacity="0.501961" x="-0.5" y="-0.5" width="1" height="1" /></g>
<g transform="translate(48 108) rotate(-6) scale(2 15)"><rect fill="#988876" fill-opacity="0.501961" x="-0.5" y="-0.5" width="1" height="1" /></g>
<g transform="translate(9 143) rotate(54) scale(62 0)"><rect fill="#120d01" fill-opacity="0.501961" x="-0.5" y="-0.5" width="1" height="1" /></g>
<g transform="translate(184 35) rotate(93) scale(95 4)"><rect fill="#140c01" fill-opacity="0.501961" x="-0.5" y="-0.5" width="1" height="1" /></g>
</g>
</svg>
