<svg xmlns="http://www.w3.org/2000/svg" version="1.1" width="804" height="1024">
<rect x="0" y="0" width="804" height="1024" fill="#3b2c1b" />
<g transform="scale(4.000000) translate(0.5 0.5)">
<g transform="translate(90 99) rotate(2) scale(73 103)"><rect fill="#cf9c73" fill-opacity="0.501961" x="-0.5" y="-0.5" width="1" height="1" /></g>
<g transform="translate(103 10) rotate(265) scale(54 213)"><rect fill="#000000" fill-opacity="0.501961" x="-0.5" y="-0.5" width="1" height="1" /></g>
<g transform="translate(140 225) rotate(274) scale(79 104)"><rect fill="#010000" fill-opacity="0.501961" x="-0.5" y="-0.5" width="1" height="1" /></g>
<g transform="translate(90 79) rotate(201) scale(23 107)"><rect fill="#c39d7a" fill-opacity="0.501961" x="-0.5" y="-0.5" width="1" height="1" /></g>
<g transform="translate(84 132) rotate(82) scale(38 110)"><rect fill="#947054" fill-opacity="0.501961" x="-0.5" y="-0.5" width="1" height="1" /></g>
<g transform="translate(169 103) rotate(279) scale(23 154)"><rect fill="#1a0a01" fill-opacity="0.501961" x="-0.5" y="-0.5" width="1" height="1" /></g>
<g transform="translate(27 61) rotate(310) scale(99 87)"><rect fill="#1d1300" fill-opacity="0.501961" x="-0.5" y="-0.5" width="1" height="1" /></g>
<g transform="translate(195 36) rotate(337) scale(52 119)"><rect fill="#000000" fill-opacity="0.501961" x="-0.5" y="-0.5" width="1" height="1" /></g>
<g transform="translate(87 95) rotate(216) scale(35 10)"><rect fill="#edcca1" fill-opacity="0.501961" x="-0.5" y="-0.5" width="1" height="1" /></g>
<g transform="translate(60 234) rotate(142) scale(69 105)"><rect fill="#1e180e" fill-opacity="0.501961" x="-0.5" y="-0.5" width="1" height="1" /></g>
<g transform="translate(145 167) rotate(279) scale(43 114)"><rect fill="#443421" fill-opacity="0.501961" x="-0.5" y="-0.5" width="1" height="1" /></g>
<g transform="translate(1 239) rotate(92) scale(23 27)"><rect fill="#8da08f" fill-opacity="0.501961" x="-0.5" y="-0.5" width="1" height="1" /></g>
<g transform="translate(105 67) rotate(97) scale(23 20)"><rect fill="#ddc2a5" fill-opacity="0.501961" x="-0.5" y="-0.5" width="1" height="1" /></g>
<g transform="translate(60 130) rotate(137) scale(63 40)"><rect fill="#8a715a" fill-opacity="0.501961" x="-0.5" y="-0.5" width="1" height="1" /></g>
<g transform="translate(200 208) rotate(329) scale(17 83)"><rect fill="#625533" fill-opacity="0.501961" x="-0.5" y="-0.5" width="1" height="1" /></g>
<g transform="translate(90 116) rotate(381) scale(34 14)"><rect fill="#632f0d" fill-opacity="0.501961" x="-0.5" y="-0.5" width="1" height="1" /></g>
<g transform="translate(45 255) rotate(183) scale(16 79)"><rect fill="#5f4e3b" fill-opacity="0.501961" x="-0.5" y="-0.5" width="1" height="1" /></g>
<g transform="translate(171 79) rotate(181) scale(15 44)"><rect fill="#715e48" fill-opacity="0.501961" x="-0.5" y="-0.5" width="1" height="1" /></g>
<g transform="translate(91 43) rotate(37) scale(21 20)"><rect fill="#94705a" fill-opacity="0.501961" x="-0.5" y="-0.5" width="1" height="1" /></g>
<g transform="translate(128 61) rotate(252) scale(81 15)"><rect fill="#6d4832" fill-opacity="0.501961" x="-0.5" y="-0.5" width="1" height="1" /></g>
<g transform="translate(121 124) rotate(57) scale(14 44)"><rect fill="#d39e72" fill-opacity="0.501961" x="-0.5" y="-0.5" width="1" height="1" /></g>
<g transform="translate(24 150) rotate(49) scale(67 11)"><rect fill="#080400" fill-opacity="0.501961" x="-0.5" y="-0.5" width="1" height="1" /></g>
<g transform="translate(162 235) rotate(329) scale(69 82)"><rect fill="#150c00" fill-opacity="0.501961" x="-0.5" y="-0.5" width="1" height="1" /></g>
<g transform="translate(81 168) rotate(332) scale(10 66)"><rect fill="#1c0902" fill-opacity="0.501961" x="-0.5" y="-0.5" width="1" height="1" /></g>
<g transform="translate(101 89) rotate(363) scale(25 10)"><rect fill="#240400" fill-opacity="0.501961" x="-0.5" y="-0.5" width="1" height="1" /></g>
<g transform="translate(75 14) rotate(69) scale(49 185)"><rect fill="#140c00" fill-opacity="0.501961" x="-0.5" y="-0.5" width="1" height="1" /></g>
<g transform="translate(75 68) rotate(316) scale(50 18)"><rect fill="#815330" fill-opacity="0.501961" x="-0.5" y="-0.5" width="1" height="1" /></g>
<g transform="translate(22 174) rotate(152) scale(4 63)"><rect fill="#91795b" fill-opacity="0.501961" x="-0.5" y="-0.5" width="1" height="1" /></g>
<g transform="translate(138 139) rotate(144) scale(8 66)"><rect fill="#452a16" fill-opacity="0.501961" x="-0.5" y="-0.5" width="1" height="1" /></g>
<g transform="translate(30 224) rotate(263) scale(62 17)"><rect fill="#080401" fill-opacity="0.501961" x="-0.5" y="-0.5" width="1" height="1" /></g>
<g transform="translate(57 165) rotate(315) scale(7 88)"><rect fill="#69594e" fill-opacity="0.501961" x="-0.5" y="-0.5" width="1" height="1" /></g>
<g transform="translate(116 175) rotate(13) scale(50 9)"><rect fill="#756355" fill-opacity="0.501961" x="-0.5" y="-0.5" width="1" height="1" /></g>
<g transform="translate(162 110) rotate(17) scale(106 15)"><rect fill="#170c01" fill-opacity="0.501961" x="-0.5" y="-0.5" width="1" height="1" /></g>
<g transform="translate(73 142) rotate(139) scale(8 85)"><rect fill="#79604b" fill-opacity="0.501961" x="-0.5" y="-0.5" width="1" height="1" /></g>
<g transform="translate(132 171) rotate(16) scale(14 54)"><rect fill="#160b06" fill-opacity="0.501961" x="-0.5" y="-0.5" width="1" height="1" /></g>
<g transform="translate(168 16) rotate(33) scale(126 38)"><rect fill="#0e0300" fill-opacity="0.501961" x="-0.5" y="-0.5" width="1" height="1" /></g>
<g transform="translate(162 136) rotate(293) scale(5 85)"><rect fill="#291a06" fill-opacity="0.501961" x="-0.5" y="-0.5" width="1" height="1" /></g>
<g transform="translate(71 59) rotate(159) scale(6 34)"><rect fill="#0a0500" fill-opacity="0.501961" x="-0.5" y="-0.5" width="1" height="1" /></g>
<g transform="translate(15 183) rotate(277) scale(11 35)"><rect fill="#64553a" fill-opacity="0.501961" x="-0.5" y="-0.5" width="1" height="1" /></g>
<g transform="translate(168 141) rotate(252) scale(47 19)"><rect fill="#534025" fill-opacity="0.501961" x="-0.5" y="-0.5" width="1" height="1" /></g>
<g transform="translate(116 131) rotate(275) scale(13 27)"><rect fill="#dcad83" fill-opacity="0.501961" x="-0.5" y="-0.5" width="1" height="1" /></g>
<g transform="translate(62 74) rotate(292) scale(21 4)"><rect fill="#dea066" fill-opacity="0.501961" x="-0.5" y="-0.5" width="1" height="1" /></g>
<g transform="translate(118 160) rotate(94) scale(11 57)"><rect fill="#150605" fill-opacity="0.501961" x="-0.5" y="-0.5" width="1" height="1" /></g>
<g transform="translate(118 62) rotate(267) scale(23 13)"><rect fill="#ab815b" fill-opacity="0.501961" x="-0.5" y="-0.5" width="1" height="1" /></g>
<g transform="translate(113 30) rotate(84) scale(14 56)"><rect fill="#493229" fill-opacity="0.501961" x="-0.5" y="-0.5" width="1" height="1" /></g>
<g transform="translate(193 116) rotate(199) scale(35 54)"><rect fill="#221c04" fill-opacity="0.501961" x="-0.5" y="-0.5" width="1" height="1" /></g>
<g transform="translate(104 192) rotate(220) scale(70 14)"><rect fill="#0a0000" fill-opacity="0.501961" x="-0.5" y="-0.5" width="1" height="1" /></g>
<g transform="translate(149 67) rotate(177) scale(25 74)"><rect fill="#341f18" fill-opacity="0.501961" x="-0.5" y="-0.5" width="1" height="1" /></g>
<g transform="translate(0 247) rotate(316) scale(5 74)"><rect fill="#121008" fill-opacity="0.501961" x="-0.5" y="-0.5" width="1" height="1" /></g>
<g transform="translate(87 92) rotate(63) scale(32 5)"><rect fill="#f0d5aa" fill-opacity="0.501961" x="-0.5" y="-0.5" width="1" height="1" /></g>
<g transform="translate(160 243) rotate(141) scale(68 118)"><rect fill="#1b1204" fill-opacity="0.501961" x="-0.5" y="-0.5" width="1" height="1" /></g>
<g transform="translate(145 155) rotate(205) scale(71 5)"><rect fill="#372816" fill-opacity="0.501961" x="-0.5" y="-0.5" width="1" height="1" /></g>
<g transform="translate(25 27) rotate(189) scale(71 108)"><rect fill="#1c1502" fill-opacity="0.501961" x="-0.5" y="-0.5" width="1" height="1" /></g>
<g transform="translate(128 108) rotate(147) scale(100 3)"><rect fill="#42220e" fill-opacity="0.501961" x="-0.5" y="-0.5" width="1" height="1" /></g>
<g transform="translate(77 97) rotate(34) scale(5 40)"><rect fill="#bd9d78" fill-opacity="0.501961" x="-0.5" y="-0.5" width="1" height="1" /></g>
<g transform="translate(135 116) rotate(288) scale(5 73)"><rect fill="#9f734f" fill-opacity="0.501961" x="-0.5" y="-0.5" width="1" height="1" /></g>
<g transform="translate(23 241) rotate(170) scale(12 46)"><rect fill="#0b0703" fill-opacity="0.501961" x="-0.5" y="-0.5" width="1" height="1" /></g>
<g transform="translate(101 48) rotate(355) scale(11 14)"><rect fill="#d0b295" fill-opacity="0.501961" x="-0.5" y="-0.5" width="1" height="1" /></g>
<g transform="translate(106 96) rotate(140) scale(12 5)"><rect fill="#b4522d" fill-opacity="0.501961" x="-0.5" y="-0.5" width="1" height="1" /></g>
<g transform="translate(50 125) rotate(339) scale(6 27)"><rect fill="#9a8b7a" fill-opacity="0.501961" x="-0.5" y="-0.5" width="1" height="1" /></g>
<g transform="translate(58 178) rotate(115) scale(41 8)"><rect fill="#0b0707" fill-opacity="0.501961" x="-0.5" y="-0.5" width="1" height="1" /></g>
<g transform="translate(73 123) rotate(230) scale(31 8)"><rect fill="#bda989" fill-opacity="0.501961" x="-0.5" y="-0.5" width="1" height="1" /></g>
<g transform="translate(174 175) rotate(292) scale(24 56)"><rect fill="#4d4126" fill-opacity="0.501961" x="-0.5" y="-0.5" width="1" height="1" /></g>
<g transform="translate(68 135) rotate(340) scale(4 34)"><rect fill="#432a18" fill-opacity="0.501961" x="-0.5" y="-0.5" width="1" height="1" /></g>
<g transform="translate(61 248) rotate(55) scale(23 85)"><rect fill="#372917" fill-opacity="0.501961" x="-0.5" y="-0.5" width="1" height="1" /></g>
<g transform="translate(65 205) rotate(49) scale(101 8)"><rect fill="#191003" fill-opacity="0.501961" x="-0.5" y="-0.5" width="1" height="1" /></g>
<g transform="translate(63 54) rotate(148) scale(2 19)"><rect fill="#e4aa72" fill-opacity="0.501961" x="-0.5" y="-0.5" width="1" height="1" /></g>
<g transform="translate(52 139) rotate(301) scale(15 26)"><rect fill="#8f7b65" fill-opacity="0.501961" x="-0.5" y="-0.5" width="1" height="1" /></g>
<g transform="translate(43 223) rotate(123) scale(5 11)"><rect fill="#96846b" fill-opacity="0.501961" x="-0.5" y="-0.5" width="1" height="1" /></g>
<g transform="translate(23 105) rotate(134) scale(54 36)"><rect fill="#322814" fill-opacity="0.501961" x="-0.5" y="-0.5" width="1" height="1" /></g>
<g transform="translate(36 17) rotate(198) scale(98 43)"><rect fill="#181003" fill-opacity="0.501961" x="-0.5" y="-0.5" width="1" height="1" /></g>
<g transform="translate(193 71) rotate(105) scale(38 23)"><rect fill="#171100" fill-opacity="0.501961" x="-0.5" y="-0.5" width="1" height="1" /></g>
<g transform="translate(8 186) rotate(235) scale(23 1)"><rect fill="#d2b894" fill-opacity="0.501961" x="-0.5" y="-0.5" width="1" height="1" /></g>
<g transform="translate(136 181) rotate(381) scale(14 14)"><rect fill="#564c3b" fill-opacity="0.501961" x="-0.5" y="-0.5" width="1" height="1" /></g>
<g transform="translate(35 183) rotate(216) scale(12 2)"><rect fill="#958a7c" fill-opacity="0.501961" x="-0.5" y="-0.5" width="1" height="1" /></g>
<g transform="translate(8 180) rotate(146) scale(4 100)"><rect fill="#050100" fill-opacity="0.501961" x="-0.5" y="-0.5" width="1" height="1" /></g>
<g transform="translate(38 118) rotate(170) scale(3 20)"><rect fill="#0f0a00" fill-opacity="0.501961" x="-0.5" y="-0.5" width="1" height="1" /></g>
<g transform="translate(124 145) rotate(290) scale(3 37)"><rect fill="#110000" fill-opacity="0.501961" x="-0.5" y="-0.5" width="1" height="1" /></g>
<g transform="translate(166 144) rotate(301) scale(14 73)"><rect fill="#342715" fill-opacity="0.501961" x="-0.5" y="-0.5" width="1" height="1" /></g>
<g transform="translate(75 192) rotate(329) scale(18 19)"><rect fill="#584938" fill-opacity="0.501961" x="-0.5" y="-0.5" width="1" height="1" /></g>
<g transform="translate(151 146) rotate(33) scale(10 6)"><rect fill="#7a705a" fill-opacity="0.501961" x="-0.5" y="-0.5" width="1" height="1" /></g>
<g transform="translate(113 42) rotate(230) scale(27 16)"><rect fill="#745035" fill-opacity="0.501961" x="-0.5" y="-0.5" width="1" height="1" /></g>
<g transform="translate(112 101) rotate(214) scale(28 2)"><rect fill="#1d0900" fill-opacity="0.501961" x="-0.5" y="-0.5" width="1" height="1" /></g>
<g transform="translate(142 190) rotate(185) scale(7 72)"><rect fill="#372c1c" fill-opacity="0.501961" x="-0.5" y="-0.5" width="1" height="1" /></g>
<g transform="translate(64 87) rotate(84) scale(9 11)"><rect fill="#271506" fill-opacity="0.501961" x="-0.5" y="-0.5" width="1" height="1" /></g>
<g transform="translate(61 116) rotate(254) scale(11 15)"><rect fill="#b2835b" fill-opacity="0.501961" x="-0.5" y="-0.5" width="1" height="1" /></g>
<g transform="translate(107 243) rotate(106) scale(39 32)"><rect fill="#2b1f0c" fill-opacity="0.501961" x="-0.5" y="-0.5" width="1" height="1" /></g>
<g transform="translate(79 102) rotate(62) scale(12 13)"><rect fill="#835837" fill-opacity="0.501961" x="-0.5" y="-0.5" width="1" height="1" /></g>
<g transform="translate(186 235) rotate(249) scale(64 6)"><rect fill="#000000" fill-opacity="0.501961" x="-0.5" y="-0.5" width="1" height="1" /></g>
<g transform="translate(4 214) rotate(160) scale(35 19)"><rect fill="#453319" fill-opacity="0.501961" x="-0.5" y="-0.5" width="1" height="1" /></g>
<g transform="translate(63 102) rotate(76) scale(10 6)"><rect fill="#441e02" fill-opacity="0.501961" x="-0.5" y="-0.5" width="1" height="1" /></g>
<g transform="translate(15 131) rotate(250) scale(12 21)"><rect fill="#150e00" fill-opacity="0.501961" x="-0.5" y="-0.5" width="1" height="1" /></g>
<g transform="translate(106 66) rotate(155) scale(7 12)"><rect fill="#f7dfbc" fill-opacity="0.501961" x="-0.5" y="-0.5" width="1" height="1" /></g>
<g transform="translate(124 133) rotate(-10) scale(9 18)"><rect fill="#ac7042" fill-opacity="0.501961" x="-0.5" y="-0.5" width="1" height="1" /></g>
<g transform="translate(125 100) rotate(147) scale(9 16)"><rect fill="#020000" fill-opacity="0.501961" x="-0.5" y="-0.5" width="1" height="1" /></g>
<g transform="translate(85 238) rotate(201) scale(4 40)"><rect fill="#53422d" fill-opacity="0.501961" x="-0.5" y="-0.5" width="1" height="1" /></g>
<g transform="translate(65 243) rotate(33) scale(17 118)"><rect fill="#2b2111" fill-opacity="0.501961" x="-0.5" y="-0.5" width="1" height="1" /></g>
<g transform="translate(160 93) rotate(269) scale(17 17)"><rect fill="#453327" fill-opacity="0.501961" x="-0.5" y="-0.5" width="1" height="1" /></g>
<g transform="translate(10 243) rotate(277) scale(14 15)"><rect fill="#484d3e" fill-opacity="0.501961" x="-0.5" y="-0.5" width="1" height="1" /></g>
<g transform="translate(19 165) rotate(155) scale(0 29)"><rect fill="#bba383" fill-opacity="0.501961" x="-0.5" y="-0.5" width="1" height="1" /></g>
<g transform="translate(144 144) rotate(298) scale(1 24)"><rect fill="#997b60" fill-opacity="0.501961" x="-0.5" y="-0.5" width="1" height="1" /></g>
<g transform="translate(43 152) rotate(331) scale(6 26)"><rect fill="#92816c" fill-opacity="0.501961" x="-0.5" y="-0.5" width="1" height="1" /></g>
<g transform="translate(182 159) rotate(224) scale(79 19)"><rect fill="#3f311a" fill-opacity="0.501961" x="-0.5" y="-0.5" width="1" height="1" /></g>
<g transform="translate(59 100) rotate(87) scale(108 2)"><rect fill="#946d49" fill-opacity="0.501961" x="-0.5" y="-0.5" width="1" height="1" /></g>
<g transform="translate(68 94) rotate(181) scale(15 5)"><rect fill="#dbbb8e" fill-opacity="0.501961" x="-0.5" y="-0.5" width="1" height="1" /></g>
<g transform="translate(33 186) rotate(325) scale(6 7)"><rect fill="#0d0200" fill-opacity="0.501961" x="-0.5" y="-0.5" width="1" height="1" /></g>
<g transform="translate(118 205) rotate(298) scale(39 25)"><rect fill="#0d0600" fill-opacity="0.501961" x="-0.5" y="-0.5" width="1" height="1" /></g>
<g transform="translate(67 252) rotate(59) scale(113 4)"><rect fill="#23190d" fill-opacity="0.501961" x="-0.5" y="-0.5" width="1" height="1" /></g>
<g transform="translate(33 148) rotate(129) scale(6 26)"><rect fill="#463629" fill-opacity="0.501961" x="-0.5" y="-0.5" width="1" height="1" /></g>
<g transform="translate(66 223) rotate(70) scale(34 5)"><rect fill="#4a3d2c" fill-opacity="0.501961" x="-0.5" y="-0.5" width="1" height="1" /></g>
<g transform="translate(131 113) rotate(6) scale(11 10)"><rect fill="#da9e6c" fill-opacity="0.501961" x="-0.5" y="-0.5" width="1" height="1" /></g>
<g transform="translate(73 126) rotate(-3) scale(6 6)"><rect fill="#dcd2b4" fill-opacity="0.501961" x="-0.5" y="-0.5" width="1" height="1" /></g>
<g transform="translate(128 151) rotate(276) scale(2 25)"><rect fill="#7f5c47" fill-opacity="0.501961" x="-0.5" y="-0.5" width="1" height="1" /></g>
<g transform="translate(70 108) rotate(104) scale(10 6)"><rect fill="#c9bca1" fill-opacity="0.501961" x="-0.5" y="-0.5" width="1" height="1" /></g>
<g transform="translate(132 14) rotate(283) scale(14 167)"><rect fill="#120a00" fill-opacity="0.501961" x="-0.5" y="-0.5" width="1" height="1" /></g>
<g transform="translate(69 74) rotate(23) scale(13 4)"><rect fill="#371600" fill-opacity="0.501961" x="-0.5" y="-0.5" width="1" height="1" /></g>
<g transform="translate(147 53) rotate(348) scale(14 60)"><rect fill="#2a1912" fill-opacity="0.501961" x="-0.5" y="-0.5" width="1" height="1" /></g>
<g transform="translate(24 109) rotate(118) scale(30 24)"><rect fill="#382c1a" fill-opacity="0.501961" x="-0.5" y="-0.5" width="1" height="1" /></g>
<g transform="translate(31 191) rotate(46) scale(25 1)"><rect fill="#938b83" fill-opacity="0.501961" x="-0.5" y="-0.5" width="1" height="1" /></g>
<g transform="translate(131 141) rotate(188) scale(15 3)"><rect fill="#b58059" fill-opacity="0.501961" x="-0.5" y="-0.5" width="1" height="1" /></g>
<g transform="translate(120 87) rotate(32) scale(7 15)"><rect fill="#2e211d" fill-opacity="0.501961" x="-0.5" y="-0.5" width="1" height="1" /></g>
<g transform="translate(101 147) rotate(279) scale(2 45)"><rect fill="#a17657" fill-opacity="0.501961" x="-0.5" y="-0.5" width="1" height="1" /></g>
<g transform="translate(89 161) rotate(337) scale(15 1)"><rect fill="#736051" fill-opacity="0.501961" x="-0.5" y="-0.5" width="1" height="1" /></g>
<g transform="translate(67 228) rotate(134) scale(19 12)"><rect fill="#201605" fill-opacity="0.501961" x="-0.5" y="-0.5" width="1" height="1" /></g>
<g transform="translate(155 210) rotate(336) scale(10 21)"><rect fill="#000000" fill-opacity="0.501961" x="-0.5" y="-0.5" width="1" height="1" /></g>
<g transform="translate(70 160) rotate(85) scale(49 4)"><rect fill="#6b4934" fill-opacity="0.501961" x="-0.5" y="-0.5" width="1" height="1" /></g>
<g transform="translate(152 122) rotate(270) scale(5 34)"><rect fill="#7c5e41" fill-opacity="0.501961" x="-0.5" y="-0.5" width="1" height="1" /></g>
<g transform="translate(50 146) rotate(272) scale(52 2)"><rect fill="#857460" fill-opacity="0.501961" x="-0.5" y="-0.5" width="1" height="1" /></g>
<g transform="translate(19 219) rotate(340) scale(49 4)"><rect fill="#0a0600" fill-opacity="0.501961" x="-0.5" y="-0.5" width="1" height="1" /></g>
<g transform="translate(143 116) rotate(3) scale(6 11)"><rect fill="#674531" fill-opacity="0.501961" x="-0.5" y="-0.5" width="1" height="1" /></g>
<g transform="translate(82 129) rotate(110) scale(8 8)"><rect fill="#ceb18c" fill-opacity="0.501961" x="-0.5" y="-0.5" width="1" height="1" /></g>
<g transform="translate(95 32) rotate(242) scale(7 34)"><rect fill="#523e33" fill-opacity="0.501961" x="-0.5" y="-0.5" width="1" height="1" /></g>
<g transform="translate(10 171) rotate(228) scale(17 2)"><rect fill="#625c66" fill-opacity="0.501961" x="-0.5" y="-0.5" width="1" height="1" /></g>
<g transform="translate(134 80) rotate(282) scale(33 12)"><rect fill="#5a3b26" fill-opacity="0.501961" x="-0.5" y="-0.5" width="1" height="1" /></g>
<g transform="translate(172 255) rotate(102) scale(15 18)"><rect fill="#332612" fill-opacity="0.501961" x="-0.5" y="-0.5" width="1" height="1" /></g>
<g transform="translate(30 235) rotate(257) scale(14 23)"><rect fill="#241b11" fill-opacity="0.501961" x="-0.5" y="-0.5" width="1" height="1" /></g>
<g transform="translate(111 76) rotate(83) scale(10 18)"><rect fill="#8e705b" fill-opacity="0.501961" x="-0.5" y="-0.5" width="1" height="1" /></g>
<g transform="translate(2 158) rotate(241) scale(19 6)"><rect fill="#140c05" fill-opacity="0.501961" x="-0.5" y="-0.5" width="1" height="1" /></g>
<g transform="translate(199 211) rotate(56) scale(63 6)"><rect fill="#5d4f32" fill-opacity="0.501961" x="-0.5" y="-0.5" width="1" height="1" /></g>
<g transform="translate(172 72) rotate(271) scale(40 9)"><rect fill="#604f3a" fill-opacity="0.501961" x="-0.5" y="-0.5" width="1" height="1" /></g>
<g transform="translate(76 180) rotate(140) scale(1 24)"><rect fill="#896b5e" fill-opacity="0.501961" x="-0.5" y="-0.5" width="1" height="1" /></g>
<g transform="translate(121 99) rotate(176) scale(13 20)"><rect fill="#1a0a03" fill-opacity="0.501961" x="-0.5" y="-0.5" width="1" height="1" /></g>
<g transform="translate(43 246) rotate(8) scale(6 88)"><rect fill="#534431" fill-opacity="0.501961" x="-0.5" y="-0.5" width="1" height="1" /></g>
<g transform="translate(102 137) rotate(258) scale(4 18)"><rect fill="#d5af90" fill-opacity="0.501961" x="-0.5" y="-0.5" width="1" height="1" /></g>
<g transform="translate(23 179) rotate(222) scale(51 1)"><rect fill="#100900" fill-opacity="0.501961" x="-0.5" y="-0.5" width="1" height="1" /></g>
<g transform="translate(162 123) rotate(70) scale(8 18)"><rect fill="#775940" fill-opacity="0.501961" x="-0.5" y="-0.5" width="1" height="1" /></g>
<g transform="translate(163 62) rotate(171) scale(5 54)"><rect fill="#433126" fill-opacity="0.501961" x="-0.5" y="-0.5" width="1" height="1" /></g>
<g transform="translate(58 133) rotate(243) scale(21 1)"><rect fill="#000000" fill-opacity="0.501961" x="-0.5" y="-0.5" width="1" height="1" /></g>
<g transform="translate(22 164) rotate(62) scale(28 3)"><rect fill="#000000" fill-opacity="0.501961" x="-0.5" y="-0.5" width="1" height="1" /></g>
<g transform="translate(139 131) rotate(258) scale(6 14)"><rect fill="#120100" fill-opacity="0.501961" x="-0.5" y="-0.5" width="1" height="1" /></g>
<g transform="translate(83 73) rotate(167) scale(2 25)"><rect fill="#d1b187" fill-opacity="0.501961" x="-0.5" y="-0.5" width="1" height="1" /></g>
<g transform="translate(165 197) rotate(150) scale(18 22)"><rect fill="#2c1e0b" fill-opacity="0.501961" x="-0.5" y="-0.5" width="1" height="1" /></g>
<g transform="translate(69 115) rotate(194) scale(20 6)"><rect fill="#886d50" fill-opacity="0.501961" x="-0.5" y="-0.5" width="1" height="1" /></g>
<g transform="translate(12 49) rotate(277) scale(33 90)"><rect fill="#1e1704" fill-opacity="0.501961" x="-0.5" y="-0.5" width="1" height="1" /></g>
<g transform="translate(7 232) rotate(262) scale(8 13)"><rect fill="#c0c7b5" fill-opacity="0.501961" x="-0.5" y="-0.5" width="1" height="1" /></g>
<g transform="translate(145 165) rotate(70) scale(8 10)"><rect fill="#0f0600" fill-opacity="0.501961" x="-0.5" y="-0.5" width="1" height="1" /></g>
<g transform="translate(96 104) rotate(140) scale(20 8)"><rect fill="#b98963" fill-opacity="0.501961" x="-0.5" y="-0.5" width="1" height="1" /></g>
<g transform="translate(52 245) rotate(232) scale(10 60)"><rect fill="#3f301e" fill-opacity="0.501961" x="-0.5" y="-0.5" width="1" height="1" /></g>
<g transform="translate(45 203) rotate(326) scale(42 5)"><rect fill="#0a0500" fill-opacity="0.501961" x="-0.5" y="-0.5" width="1" height="1" /></g>
<g transform="translate(141 176) rotate(236) scale(4 22)"><rect fill="#665b4c" fill-opacity="0.501961" x="-0.5" y="-0.5" width="1" height="1" /></g>
<g transform="translate(59 222) rotate(254) scale(32 5)"><rect fill="#100900" fill-opacity="0.501961" x="-0.5" y="-0.5" width="1" height="1" /></g>
<g transform="translate(86 147) rotate(120) scale(20 7)"><rect fill="#83654e" fill-opacity="0.501961" x="-0.5" y="-0.5" width="1" height="1" /></g>
<g transform="translate(169 180) rotate(273) scale(9 26)"><rect fill="#56482e" fill-opacity="0.501961" x="-0.5" y="-0.5" width="1" height="1" /></g>
<g transform="translate(39 136) rotate(157) scale(0 18)"><rect fill="#dddacc" fill-opacity="0.501961" x="-0.5" y="-0.5" width="1" height="1" /></g>
<g transform="translate(5 66) rotate(-32) scale(32 55)"><rect fill="#271c08" fill-opacity="0.501961" x="-0.5" y="-0.5" width="1" height="1" /></g>
<g transform="translate(107 177) rotate(339) scale(4 10)"><rect fill="#9a8270" fill-opacity="0.501961" x="-0.5" y="-0.5" width="1" height="1" /></g>
<g transform="translate(146 107) rotate(184) scale(92 3)"><rect fill="#251105" fill-opacity="0.501961" x="-0.5" y="-0.5" width="1" height="1" /></g>
<g transform="translate(97 183) rotate(164) scale(15 14)"><rect fill="#0d0302" fill-opacity="0.501961" x="-0.5" y="-0.5" width="1" height="1" /></g>
<g transform="translate(59 196) rotate(327) scale(6 54)"><rect fill="#120c04" fill-opacity="0.501961" x="-0.5" y="-0.5" width="1" height="1" /></g>
<g transform="translate(113 128) rotate(65) scale(13 4)"><rect fill="#eacaa7" fill-opacity="0.501961" x="-0.5" y="-0.5" width="1" height="1" /></g>
<g transform="translate(91 91) rotate(233) scale(14 3)"><rect fill="#744922" fill-opacity="0.501961" x="-0.5" y="-0.5" width="1" height="1" /></g>
<g transform="translate(157 111) rotate(78) scale(17 15)"><rect fill="#140804" fill-opacity="0.501961" x="-0.5" y="-0.5" width="1" height="1" /></g>
<g transform="translate(7 244) rotate(352) scale(0 33)"><rect fill="#393729" fill-opacity="0.501961" x="-0.5" y="-0.5" width="1" height="1" /></g>
<g transform="translate(74 56) rotate(109) scale(8 2)"><rect fill="#816c53" fill-opacity="0.501961" x="-0.5" y="-0.5" width="1" height="1" /></g>
<g transform="translate(99 142) rotate(0) scale(8 3)"><rect fill="#000000" fill-opacity="0.501961" x="-0.5" y="-0.5" width="1" height="1" /></g>
<g transform="translate(0 227) rotate(231) scale(0 96)"><rect fill="#1f1507" fill-opacity="0.501961" x="-0.5" y="-0.5" width="1" height="1" /></g>
<g transform="translate(112 175) rotate(55) scale(1 13)"><rect fill="#a38f75" fill-opacity="0.501961" x="-0.5" y="-0.5" width="1" height="1" /></g>
<g transform="translate(133 228) rotate(60) scale(4 32)"><rect fill="#2f2514" fill-opacity="0.501961" x="-0.5" y="-0.5" width="1" height="1" /></g>
<g transform="translate(97 55) rotate(357) scale(8 28)"><rect fill="#b89472" fill-opacity="0.501961" x="-0.5" y="-0.5" width="1" height="1" /></g>
<g transform="translate(74 240) rotate(216) scale(4 23)"><rect fill="#0d0700" fill-opacity="0.501961" x="-0.5" y="-0.5" width="1" height="1" /></g>
<g transform="translate(141 96) rotate(294) scale(15 1)"><rect fill="#7a5335" fill-opacity="0.501961" x="-0.5" y="-0.5" width="1" height="1" /></g>
<g transform="translate(46 147) rotate(64) scale(32 1)"><rect fill="#151510" fill-opacity="0.501961" x="-0.5" y="-0.5" width="1" height="1" /></g>
<g transform="translate(55 212) rotate(133) scale(6 11)"><rect fill="#000000" fill-opacity="0.501961" x="-0.5" y="-0.5" width="1" height="1" /></g>
<g transform="translate(56 133) rotate(154) scale(0 38)"><rect fill="#dac7b3" fill-opacity="0.501961" x="-0.5" y="-0.5" width="1" height="1" /></g>
<g transform="translate(120 31) rotate(131) scale(19 7)"><rect fill="#38261b" fill-opacity="0.501961" x="-0.5" y="-0.5" width="1" height="1" /></g>
<g transform="translate(198 184) rotate(126) scale(21 112)"><rect fill="#463920" fill-opacity="0.501961" x="-0.5" y="-0.5" width="1" height="1" /></g>
<g transform="translate(146 145) rotate(262) scale(3 31)"><rect fill="#382214" fill-opacity="0.501961" x="-0.5" y="-0.5" width="1" height="1" /></g>
<g transform="translate(116 116) rotate(61) scale(1 23)"><rect fill="#361301" fill-opacity="0.501961" x="-0.5" y="-0.5" width="1" height="1" /></g>
<g transform="translate(10 213) rotate(86) scale(47 0)"><rect fill="#2f1f0b" fill-opacity="0.501961" x="-0.5" y="-0.5" width="1" height="1" /></g>
<g transform="translate(128 78) rotate(-9) scale(6 20)"><rect fill="#815b3e" fill-opacity="0.501961" x="-0.5" y="-0.5" width="1" height="1" /></g>
<g transform="translate(68 156) rotate(128) scale(6 10)"><rect fill="#251710" fill-opacity="0.501961" x="-0.5" y="-0.5" width="1" height="1" /></g>
<g transform="translate(99 49) rotate(156) scale(3 12)"><rect fill="#cbbba5" fill-opacity="0.501961" x="-0.5" y="-0.5" width="1" height="1" /></g>
<g transform="translate(59 121) rotate(76) scale(33 4)"><rect fill="#be885a" fill-opacity="0.501961" x="-0.5" y="-0.5" width="1" height="1" /></g>
<g transform="translate(115 61) rotate(173) scale(15 10)"><rect fill="#b18a67" fill-opacity="0.501961" x="-0.5" y="-0.5" width="1" height="1" /></g>
<g transform="translate(92 145) rotate(77) scale(27 7)"><rect fill="#6a3f29" fill-opacity="0.501961" x="-0.5" y="-0.5" width="1" height="1" /></g>
<g transform="translate(2 211) rotate(243) scale(29 5)"><rect fill="#553f24" fill-opacity="0.501961" x="-0.5" y="-0.5" width="1" height="1" /></g>
<g transform="translate(87 48) rotate(243) scale(13 12)"><rect fill="#694731" fill-opacity="0.501961" x="-0.5" y="-0.5" width="1" height="1" /></g>
<g transform="translate(174 7) rotate(45) scale(81 55)"><rect fill="#110800" fill-opacity="0.501961" x="-0.5" y="-0.5" width="1" height="1" /></g>
<g transform="translate(97 74) rotate(342) scale(9 6)"><rect fill="#d5c7b1" fill-opacity="0.501961" x="-0.5" y="-0.5" width="1" height="1" /></g>
<g transform="translate(38 85) rotate(350) scale(33 21)"><rect fill="#2d220c" fill-opacity="0.501961" x="-0.5" y="-0.5" width="1" height="1" /></g>
<g transform="translate(132 52) rotate(-1) scale(9 12)"><rect fill="#63422c" fill-opacity="0.501961" x="-0.5" y="-0.5" width="1" height="1" /></g>
<g transform="translate(16 202) rotate(153) scale(3 23)"><rect fill="#644f35" fill-opacity="0.501961" x="-0.5" y="-0.5" width="1" height="1" /></g>
<g transform="translate(80 82) rotate(300) scale(11 3)"><rect fill="#e7dfbf" fill-opacity="0.501961" x="-0.5" y="-0.5" width="1" height="1" /></g>
<g transform="translate(79 195) rotate(318) scale(2 30)"><rect fill="#120f0c" fill-opacity="0.501961" x="-0.5" y="-0.5" width="1" height="1" /></g>
<g transform="translate(37 185) rotate(146) scale(1 21)"><rect fill="#6a6057" fill-opacity="0.501961" x="-0.5" y="-0.5" width="1" height="1" /></g>
<g transform="translate(56 75) rotate(86) scale(18 1)"><rect fill="#b28152" fill-opacity="0.501961" x="-0.5" y="-0.5" width="1" height="1" /></g>
<g transform="translate(100 222) rotate(197) scale(41 2)"><rect fill="#4d3e25" fill-opacity="0.501961" x="-0.5" y="-0.5" width="1" height="1" /></g>
<g transform="translate(85 119) rotate(180) scale(5 8)"><rect fill="#613618" fill-opacity="0.501961" x="-0.5" y="-0.5" width="1" height="1" /></g>
<g transform="translate(94 254) rotate(127) scale(57 21)"><rect fill="#1e1408" fill-opacity="0.501961" x="-0.5" y="-0.5" width="1" height="1" /></g>
<g transform="translate(8 177) rotate(53) scale(48 3)"><rect fill="#2a1e0a" fill-opacity="0.501961" x="-0.5" y="-0.5" width="1" height="1" /></g>
<g transform="translate(184 37) rotate(251) scale(48 26)"><rect fill="#160e03" fill-opacity="0.501961" x="-0.5" y="-0.5" width="1" height="1" /></g>
<g transform="translate(106 148) rotate(206) scale(19 1)"><rect fill="#b38665" fill-opacity="0.501961" x="-0.5" y="-0.5" width="1" height="1" /></g>
<g transform="translate(17 144) rotate(314) scale(5 50)"><rect fill="#120a00" fill-opacity="0.501961" x="-0.5" y="-0.5" width="1" height="1" /></g>
<g transform="translate(71 0) rotate(59) scale(67 16)"><rect fill="#160d00" fill-opacity="0.501961" x="-0.5" y="-0.5" width="1" height="1" /></g>
<g transform="translate(16 165) rotate(319) scale(5 11)"><rect fill="#866744" fill-opacity="0.501961" x="-0.5" y="-0.5" width="1" height="1" /></g>
<g transform="translate(42 169) rotate(66) scale(14 13)"><rect fill="#332316" fill-opacity="0.501961" x="-0.5" y="-0.5" width="1" height="1" /></g>
<g transform="translate(151 85) rotate(229) scale(16 25)"><rect fill="#312115" fill-opacity="0.501961" x="-0.5" y="-0.5" width="1" height="1" /></g>
<g transform="translate(171 138) rotate(291) scale(3 107)"><rect fill="#332210" fill-opacity="0.501961" x="-0.5" y="-0.5" width="1" height="1" /></g>
<g transform="translate(77 210) rotate(17) scale(39 3)"><rect fill="#120a00" fill-opacity="0.501961" x="-0.5" y="-0.5" width="1" height="1" /></g>
<g transform="translate(169 120) rotate(98) scale(13 1)"><rect fill="#8b7f62" fill-opacity="0.501961" x="-0.5" y="-0.5" width="1" height="1" /></g>
<g transform="translate(60 219) rotate(142) scale(16 3)"><rect fill="#605341" fill-opacity="0.501961" x="-0.5" y="-0.5" width="1" height="1" /></g>
<g transform="translate(27 164) rotate(-13) scale(3 8)"><rect fill="#736a76" fill-opacity="0.501961" x="-0.5" y="-0.5" width="1" height="1" /></g>
<g transform="translate(146 220) rotate(184) scale(9 91)"><rect fill="#1b1306" fill-opacity="0.501961" x="-0.5" y="-0.5" width="1" height="1" /></g>
<g transform="translate(62 36) rotate(64) scale(43 9)"><rect fill="#160f02" fill-opacity="0.501961" x="-0.5" y="-0.5" width="1" height="1" /></g>
<g transform="translate(49 104) rotate(211) scale(1 44)"><rect fill="#453523" fill-opacity="0.501961" x="-0.5" y="-0.5" width="1" height="1" /></g>
<g transform="translate(32 139) rotate(205) scale(16 3)"><rect fill="#473622" fill-opacity="0.501961" x="-0.5" y="-0.5" width="1" height="1" /></g>
<g transform="translate(188 146) rotate(237) scale(58 7)"><rect fill="#382a11" fill-opacity="0.501961" x="-0.5" y="-0.5" width="1" height="1" /></g>
<g transform="translate(54 144) rotate(74) scale(65 1)"><rect fill="#64503a" fill-opacity="0.501961" x="-0.5" y="-0.5" width="1" height="1" /></g>
<g transform="translate(138 165) rotate(-13) scale(15 11)"><rect fill="#120600" fill-opacity="0.501961" x="-0.5" y="-0.5" width="1" height="1" /></g>
<g transform="translate(11 210) rotate(94) scale(15 16)"><rect fill="#2d210e" fill-opacity="0.501961" x="-0.5" y="-0.5" width="1" height="1" /></g>
<g transform="translate(106 66) rotate(112) scale(9 8)"><rect fill="#e1c6a7" fill-opacity="0.501961" x="-0.5" y="-0.5" width="1" height="1" /></g>
<g transform="translate(14 180) rotate(372) scale(3 2)"><rect fill="#fff3da" fill-opacity="0.501961" x="-0.5" y="-0.5" width="1" height="1" /></g>
<g transform="translate(13 155) rotate(151) scale(1 39)"><rect fill="#a28b6b" fill-opacity="0.501961" x="-0.5" y="-0.5" width="1" height="1" /></g>
<g transform="translate(118 23) rotate(270) scale(5 38)"><rect fill="#2a1d1c" fill-opacity="0.501961" x="-0.5" y="-0.5" width="1" height="1" /></g>
<g transform="translate(78 48) rotate(108) scale(18 5)"><rect fill="#4a3527" fill-opacity="0.501961" x="-0.5" y="-0.5" width="1" height="1" /></g>
<g transform="translate(103 89) rotate(79) scale(3 17)"><rect fill="#090200" fill-opacity="0.501961" x="-0.5" y="-0.5" width="1" height="1" /></g>
<g transform="translate(187 251) rotate(317) scale(3 34)"><rect fill="#000000" fill-opacity="0.501961" x="-0.5" y="-0.5" width="1" height="1" /></g>
<g transform="translate(153 157) rotate(169) scale(6 7)"><rect fill="#71634c" fill-opacity="0.501961" x="-0.5" y="-0.5" width="1" height="1" /></g>
<g transform="translate(126 113) rotate(212) scale(3 7)"><rect fill="#d6b288" fill-opacity="0.501961" x="-0.5" y="-0.5" width="1" height="1" /></g>
<g transform="translate(180 197) rotate(136) scale(5 23)"><rect fill="#1f1000" fill-opacity="0.501961" x="-0.5" y="-0.5" width="1" height="1" /></g>
<g transform="translate(38 200) rotate(52) scale(1 11)"><rect fill="#93806b" fill-opacity="0.501961" x="-0.5" y="-0.5" width="1" height="1" /></g>
<g transform="translate(47 154) rotate(66) scale(23 1)"><rect fill="#b4b0a5" fill-opacity="0.501961" x="-0.5" y="-0.5" width="1" height="1" /></g>
<g transform="translate(89 82) rotate(108) scale(7 2)"><rect fill="#e0be99" fill-opacity="0.501961" x="-0.5" y="-0.5" width="1" height="1" /></g>
<g transform="translate(34 93) rotate(275) scale(19 41)"><rect fill="#312512" fill-opacity="0.501961" x="-0.5" y="-0.5" width="1" height="1" /></g>
<g transform="translate(194 104) rotate(191) scale(28 27)"><rect fill="#1d1909" fill-opacity="0.501961" x="-0.5" y="-0.5" width="1" height="1" /></g>
<g transform="translate(70 85) rotate(190) scale(3 31)"><rect fill="#8b6033" fill-opacity="0.501961" x="-0.5" y="-0.5" width="1" height="1" /></g>
<g transform="translate(33 106) rotate(254) scale(72 1)"><rect fill="#302514" fill-opacity="0.501961" x="-0.5" y="-0.5" width="1" height="1" /></g>
<g transform="translate(48 108) rotate(-6) scale(2 15)"><rect fill="#988876" fill-opacity="0.501961" x="-0.5" y="-0.5" width="1" height="1" /></g>
<g transform="translate(9 143) rotate(54) scale(62 0)"><rect fill="#120d01" fill-opacity="0.501961" x="-0.5" y="-0.5" width="1" height="1" /></g>
<g transform="translate(184 35) rotate(93) scale(95 4)"><rect fill="#140c01" fill-opacity="0.501961" x="-0.5" y="-0.5" width="1" height="1" /></g>
</g>
</svg>