<svg xmlns="http://www.w3.org/2000/svg" version="1.1" width="804" height="1024">
<rect x="0" y="0" width="804" height="1024" fill="#3b2c1b" />
<g transform="scale(4.000000) translate(0.5 0.5)">
<polygon fill="#d5a37c" fill-opacity="0.501961" points="22,150 110,19 131,149" />
<polygon fill="#050100" fill-opacity="0.501961" points="216,252 77,271 123,138" />
<polygon fill="#000000" fill-opacity="0.501961" points="2,-16 -9,66 216,3" />
<polygon fill="#000000" fill-opacity="0.501961" points="122,80 88,85 125,112" />
<polygon fill="#c9a17d" fill-opacity="0.501961" points="66,112 89,31 134,54" />
<polygon fill="#000000" fill-opacity="0.501961" points="216,-1 202,148 157,-8" />
<polygon fill="#9e7352" fill-opacity="0.501961" points="152,115 82,158 53,90" />
<polygon fill="#4f3d2b" fill-opacity="0.501961" points="216,198 5,159 144,132" />
<polygon fill="#785131" fill-opacity="0.501961" points="56,49 108,20 52,123" />
<polygon fill="#161208" fill-opacity="0.501961" points="71,259 93,214 -12,102" />
<polygon fill="#000000" fill-opacity="0.501961" points="43,203 15,193 22,271" />
<polygon fill="#865d40" fill-opacity="0.501961" points="135,99 125,25 97,30" />
<polygon fill="#170f00" fill-opacity="0.501961" points="-16,11 -16,132 135,-16" />
<polygon fill="#130b00" fill-opacity="0.501961" points="176,183 216,263 60,203" />
<polygon fill="#6c5f52" fill-opacity="0.501961" points="21,138 35,117 87,197" />
<polygon fill="#0f0100" fill-opacity="0.501961" points="70,144 124,207 58,167" />
<polygon fill="#120400" fill-opacity="0.501961" points="88,79 148,116 216,116" />
<polygon fill="#080000" fill-opacity="0.501961" points="67,-11 206,56 212,-7" />
<polygon fill="#c19c7a" fill-opacity="0.501961" points="132,126 58,122 107,139" />
<polygon fill="#7b5030" fill-opacity="0.501961" points="69,116 180,128 133,106" />
<polygon fill="#ae7e4f" fill-opacity="0.501961" points="57,42 68,59 56,100" />
<polygon fill="#5a2c0f" fill-opacity="0.501961" points="90,135 114,117 75,105" />
<polygon fill="#7b6856" fill-opacity="0.501961" points="143,177 109,181 77,159" />
<polygon fill="#503d2c" fill-opacity="0.501961" points="64,189 67,122 91,228" />
<polygon fill="#e8d2b5" fill-opacity="0.501961" points="86,84 105,52 113,67" />
<polygon fill="#f3d9ae" fill-opacity="0.501961" points="71,88 100,109 83,77" />
<polygon fill="#74614b" fill-opacity="0.501961" points="177,51 161,65 177,102" />
<polygon fill="#91a594" fill-opacity="0.501961" points="14,251 -16,230 14,226" />
<polygon fill="#160e03" fill-opacity="0.501961" points="62,193 -4,130 19,122" />
<polygon fill="#635644" fill-opacity="0.501961" points="37,216 70,213 44,235" />
<polygon fill="#7f6b4f" fill-opacity="0.501961" points="7,140 34,193 12,178" />
<polygon fill="#2f1204" fill-opacity="0.501961" points="118,108 82,84 176,103" />
<polygon fill="#211802" fill-opacity="0.501961" points="55,31 -11,49 52,112" />
<polygon fill="#150803" fill-opacity="0.501961" points="117,184 150,165 143,137" />
<polygon fill="#211a01" fill-opacity="0.501961" points="200,158 170,128 201,33" />
<polygon fill="#655936" fill-opacity="0.501961" points="216,208 170,177 207,229" />
<polygon fill="#311b17" fill-opacity="0.501961" points="152,23 163,93 107,19" />
<polygon fill="#d19e73" fill-opacity="0.501961" points="145,143 116,118 100,135" />
<polygon fill="#130703" fill-opacity="0.501961" points="141,155 142,171 84,152" />
<polygon fill="#0e0900" fill-opacity="0.501961" points="77,47 77,26 57,70" />
<polygon fill="#a67e5c" fill-opacity="0.501961" points="108,77 123,45 127,84" />
<polygon fill="#87745f" fill-opacity="0.501961" points="50,170 26,127 66,127" />
<polygon fill="#422f1a" fill-opacity="0.501961" points="215,166 138,156 117,113" />
<polygon fill="#714428" fill-opacity="0.501961" points="78,39 95,50 90,73" />
<polygon fill="#2f2511" fill-opacity="0.501961" points="64,83 -16,97 20,134" />
<polygon fill="#070000" fill-opacity="0.501961" points="147,148 106,137 124,148" />
<polygon fill="#b8a07e" fill-opacity="0.501961" points="91,78 65,123 73,82" />
<polygon fill="#59402f" fill-opacity="0.501961" points="142,62 83,30 117,22" />
<polygon fill="#634f38" fill-opacity="0.501961" points="172,114 155,122 150,163" />
<polygon fill="#603e29" fill-opacity="0.501961" points="121,86 143,103 135,36" />
<polygon fill="#150d02" fill-opacity="0.501961" points="148,263 187,219 67,163" />
<polygon fill="#463b25" fill-opacity="0.501961" points="147,206 137,226 137,171" />
<polygon fill="#5a4d42" fill-opacity="0.501961" points="36,201 46,195 24,158" />
<polygon fill="#231808" fill-opacity="0.501961" points="108,255 187,258 15,174" />
<polygon fill="#130d07" fill-opacity="0.501961" points="46,180 64,163 59,234" />
<polygon fill="#0b0000" fill-opacity="0.501961" points="123,93 139,105 100,106" />
<polygon fill="#110800" fill-opacity="0.501961" points="207,-5 110,-6 201,64" />
<polygon fill="#000000" fill-opacity="0.501961" points="33,227 4,226 45,201" />
<polygon fill="#c3b497" fill-opacity="0.501961" points="80,137 88,125 65,116" />
<polygon fill="#25170d" fill-opacity="0.501961" points="166,134 157,145 115,114" />
<polygon fill="#2c1c14" fill-opacity="0.501961" points="163,34 139,21 147,119" />
<polygon fill="#806b59" fill-opacity="0.501961" points="86,164 92,136 68,129" />
<polygon fill="#fdc08a" fill-opacity="0.501961" points="135,107 122,113 138,121" />
<polygon fill="#c06d44" fill-opacity="0.501961" points="94,108 115,90 106,90" />
<polygon fill="#5c4a36" fill-opacity="0.501961" points="161,57 172,102 180,63" />
<polygon fill="#151008" fill-opacity="0.501961" points="15,232 28,188 45,271" />
<polygon fill="#918375" fill-opacity="0.501961" points="48,100 57,142 44,118" />
<polygon fill="#66543f" fill-opacity="0.501961" points="38,149 22,138 47,109" />
<polygon fill="#220e00" fill-opacity="0.501961" points="74,81 69,57 80,68" />
<polygon fill="#2e1100" fill-opacity="0.501961" points="92,144 101,138 122,143" />
<polygon fill="#9b7f5d" fill-opacity="0.501961" points="18,199 0,172 4,187" />
<polygon fill="#6a6350" fill-opacity="0.501961" points="157,157 150,131 145,142" />
<polygon fill="#22190b" fill-opacity="0.501961" points="165,193 148,174 107,261" />
<polygon fill="#0d0300" fill-opacity="0.501961" points="168,184 191,204 190,270" />
<polygon fill="#170f00" fill-opacity="0.501961" points="95,-16 73,52 -16,6" />
<polygon fill="#120a00" fill-opacity="0.501961" points="81,25 73,-16 157,13" />
<polygon fill="#3f321e" fill-opacity="0.501961" points="108,223 58,242 88,216" />
<polygon fill="#0e0600" fill-opacity="0.501961" points="-7,153 23,179 0,144" />
<polygon fill="#4d4324" fill-opacity="0.501961" points="138,174 177,154 216,199" />
<polygon fill="#402c20" fill-opacity="0.501961" points="173,80 119,89 160,102" />
<polygon fill="#140c04" fill-opacity="0.501961" points="153,119 132,103 190,101" />
<polygon fill="#291c08" fill-opacity="0.501961" points="145,176 165,216 179,192" />
<polygon fill="#191304" fill-opacity="0.501961" points="206,38 192,124 171,23" />
<polygon fill="#937c65" fill-opacity="0.501961" points="64,156 63,134 36,144" />
<polygon fill="#64533e" fill-opacity="0.501961" points="86,231 81,243 85,245" />
<polygon fill="#060000" fill-opacity="0.501961" points="77,162 96,192 120,196" />
<polygon fill="#564634" fill-opacity="0.501961" points="21,268 50,233 45,264" />
<polygon fill="#251a0d" fill-opacity="0.501961" points="72,245 42,210 61,250" />
<polygon fill="#774c30" fill-opacity="0.501961" points="75,96 90,143 101,131" />
<polygon fill="#381701" fill-opacity="0.501961" points="94,95 92,78 111,83" />
<polygon fill="#1d1402" fill-opacity="0.501961" points="-16,22 35,-16 56,91" />
<polygon fill="#564b3e" fill-opacity="0.501961" points="151,169 132,188 120,175" />
<polygon fill="#271e0b" fill-opacity="0.501961" points="187,79 171,119 216,149" />
<polygon fill="#817364" fill-opacity="0.501961" points="63,219 59,207 66,213" />
<polygon fill="#765d4f" fill-opacity="0.501961" points="67,169 79,192 92,195" />
<polygon fill="#a37a58" fill-opacity="0.501961" points="111,73 131,76 117,51" />
<polygon fill="#2c210e" fill-opacity="0.501961" points="40,134 26,73 43,73" />
<polygon fill="#040000" fill-opacity="0.501961" points="60,199 73,212 72,220" />
<polygon fill="#252117" fill-opacity="0.501961" points="41,243 39,224 1,246" />
<polygon fill="#32231f" fill-opacity="0.501961" points="92,25 130,19 169,37" />
<polygon fill="#5e4727" fill-opacity="0.501961" points="43,212 60,202 47,201" />
<polygon fill="#231a09" fill-opacity="0.501961" points="157,221 177,244 94,225" />
<polygon fill="#3a2d14" fill-opacity="0.501961" points="215,129 163,171 150,129" />
<polygon fill="#786551" fill-opacity="0.501961" points="27,139 63,157 29,125" />
<polygon fill="#87775b" fill-opacity="0.501961" points="19,188 35,180 24,177" />
<polygon fill="#30251b" fill-opacity="0.501961" points="106,202 95,191 64,205" />
<polygon fill="#110a00" fill-opacity="0.501961" points="172,259 144,223 122,239" />
<polygon fill="#563621" fill-opacity="0.501961" points="73,134 74,173 62,139" />
<polygon fill="#000000" fill-opacity="0.501961" points="156,222 164,213 144,183" />
<polygon fill="#372418" fill-opacity="0.501961" points="168,67 164,90 129,52" />
<polygon fill="#d69b6a" fill-opacity="0.501961" points="53,116 59,103 62,122" />
<polygon fill="#2e1f10" fill-opacity="0.501961" points="51,168 37,151 26,179" />
<polygon fill="#d4b28d" fill-opacity="0.501961" points="103,96 91,110 84,94" />
<polygon fill="#905d2b" fill-opacity="0.501961" points="76,76 71,87 64,54" />
<polygon fill="#2a1e0f" fill-opacity="0.501961" points="186,243 165,219 160,184" />
<polygon fill="#362a16" fill-opacity="0.501961" points="49,101 -16,136 26,77" />
<polygon fill="#211006" fill-opacity="0.501961" points="77,178 101,157 72,171" />
<polygon fill="#7e6f54" fill-opacity="0.501961" points="178,60 166,67 178,66" />
<polygon fill="#271d08" fill-opacity="0.501961" points="35,95 4,33 -16,85" />
<polygon fill="#100800" fill-opacity="0.501961" points="139,188 99,187 121,227" />
<polygon fill="#896d4e" fill-opacity="0.501961" points="169,129 143,119 169,120" />
<polygon fill="#715a37" fill-opacity="0.501961" points="15,195 15,207 24,215" />
<polygon fill="#473c26" fill-opacity="0.501961" points="139,183 144,198 140,212" />
<polygon fill="#160f00" fill-opacity="0.501961" points="3,131 26,120 14,151" />
<polygon fill="#5b4e33" fill-opacity="0.501961" points="159,185 151,172 170,179" />
<polygon fill="#201004" fill-opacity="0.501961" points="78,181 85,169 72,141" />
<polygon fill="#a69d90" fill-opacity="0.501961" points="51,159 38,132 38,144" />
<polygon fill="#4c331b" fill-opacity="0.501961" points="116,243 114,261 104,261" />
<polygon fill="#0a0200" fill-opacity="0.501961" points="112,204 90,216 120,225" />
<polygon fill="#1b1403" fill-opacity="0.501961" points="59,28 -3,33 53,71" />
<polygon fill="#715033" fill-opacity="0.501961" points="131,89 119,38 133,48" />
<polygon fill="#33250f" fill-opacity="0.501961" points="38,78 70,89 2,93" />
<polygon fill="#554237" fill-opacity="0.501961" points="80,35 96,24 77,67" />
<polygon fill="#250c00" fill-opacity="0.501961" points="59,95 65,106 67,102" />
<polygon fill="#fff5d2" fill-opacity="0.501961" points="90,95 85,89 90,102" />
<polygon fill="#0f0c09" fill-opacity="0.501961" points="56,191 67,153 44,191" />
<polygon fill="#574b2f" fill-opacity="0.501961" points="200,226 215,212 183,188" />
<polygon fill="#261b09" fill-opacity="0.501961" points="-16,46 17,51 -16,174" />
<polygon fill="#34260d" fill-opacity="0.501961" points="174,235 178,268 165,247" />
<polygon fill="#211908" fill-opacity="0.501961" points="86,194 73,208 80,239" />
<polygon fill="#181003" fill-opacity="0.501961" points="126,-16 33,38 68,48" />
<polygon fill="#43361d" fill-opacity="0.501961" points="148,167 215,184 173,144" />
<polygon fill="#140f08" fill-opacity="0.501961" points="12,145 22,166 28,145" />
<polygon fill="#3b2117" fill-opacity="0.501961" points="66,135 62,119 67,122" />
<polygon fill="#1d1308" fill-opacity="0.501961" points="27,182 52,198 48,206" />
<polygon fill="#cbb69e" fill-opacity="0.501961" points="104,64 101,38 94,41" />
<polygon fill="#988867" fill-opacity="0.501961" points="169,114 166,124 169,123" />
<polygon fill="#2f2213" fill-opacity="0.501961" points="128,176 133,189 119,181" />
<polygon fill="#644c37" fill-opacity="0.501961" points="26,137 48,159 38,137" />
<polygon fill="#191101" fill-opacity="0.501961" points="200,63 184,50 177,87" />
<polygon fill="#0e0700" fill-opacity="0.501961" points="82,227 69,242 79,242" />
<polygon fill="#0e0601" fill-opacity="0.501961" points="181,214 155,243 172,202" />
<polygon fill="#544531" fill-opacity="0.501961" points="146,110 157,125 137,122" />
<polygon fill="#1c0d06" fill-opacity="0.501961" points="97,158 120,160 104,167" />
<polygon fill="#433128" fill-opacity="0.501961" points="177,53 154,51 159,31" />
<polygon fill="#8c7966" fill-opacity="0.501961" points="41,199 48,193 33,200" />
<polygon fill="#332714" fill-opacity="0.501961" points="71,83 -14,124 -2,95" />
<polygon fill="#1e1303" fill-opacity="0.501961" points="130,197 118,216 110,178" />
<polygon fill="#b27a49" fill-opacity="0.501961" points="54,81 66,62 60,90" />
<polygon fill="#2f220d" fill-opacity="0.501961" points="21,77 -14,106 74,84" />
<polygon fill="#ae805d" fill-opacity="0.501961" points="77,124 103,119 87,129" />
<polygon fill="#5b4f32" fill-opacity="0.501961" points="176,181 167,182 190,193" />
<polygon fill="#ba825a" fill-opacity="0.501961" points="142,113 127,108 134,123" />
<polygon fill="#130a01" fill-opacity="0.501961" points="193,11 179,58 154,6" />
<polygon fill="#4b301f" fill-opacity="0.501961" points="143,74 137,41 126,64" />
<polygon fill="#66523f" fill-opacity="0.501961" points="152,100 176,85 177,95" />
<polygon fill="#000000" fill-opacity="0.501961" points="175,238 212,261 201,271" />
<polygon fill="#140d06" fill-opacity="0.501961" points="27,265 21,193 42,232" />
<polygon fill="#201100" fill-opacity="0.501961" points="184,194 198,235 163,184" />
<polygon fill="#000000" fill-opacity="0.501961" points="173,205 187,239 186,222" />
<polygon fill="#e0be8e" fill-opacity="0.501961" points="75,94 60,96 66,90" />
<polygon fill="#251a11" fill-opacity="0.501961" points="52,267 95,271 47,248" />
<polygon fill="#3d301c" fill-opacity="0.501961" points="132,227 119,239 119,232" />
<polygon fill="#76664f" fill-opacity="0.501961" points="48,222 45,242 38,216" />
<polygon fill="#302308" fill-opacity="0.501961" points="195,160 216,125 184,123" />
<polygon fill="#1c1303" fill-opacity="0.501961" points="150,173 162,194 139,198" />
<polygon fill="#130a00" fill-opacity="0.501961" points="36,111 40,106 38,124" />
<polygon fill="#4b3b2a" fill-opacity="0.501961" points="59,157 55,165 41,139" />
<polygon fill="#0a0100" fill-opacity="0.501961" points="60,211 62,228 52,208" />
<polygon fill="#524538" fill-opacity="0.501961" points="40,244 56,220 50,212" />
<polygon fill="#2c1b12" fill-opacity="0.501961" points="129,29 159,81 149,27" />
<polygon fill="#a38669" fill-opacity="0.501961" points="57,146 40,127 53,156" />
<polygon fill="#f6e0c1" fill-opacity="0.501961" points="109,70 103,71 105,59" />
<polygon fill="#4b3f31" fill-opacity="0.501961" points="84,191 73,205 60,166" />
<polygon fill="#241a0d" fill-opacity="0.501961" points="160,228 129,229 143,211" />
<polygon fill="#020000" fill-opacity="0.501961" points="132,226 138,212 132,195" />
<polygon fill="#100801" fill-opacity="0.501961" points="70,-16 200,12 166,34" />
<polygon fill="#423128" fill-opacity="0.501961" points="17,136 33,143 45,163" />
<polygon fill="#181003" fill-opacity="0.501961" points="70,57 86,11 15,-16" />
<polygon fill="#2e2314" fill-opacity="0.501961" points="171,208 149,186 162,209" />
<polygon fill="#171204" fill-opacity="0.501961" points="2,176 -9,154 13,177" />
<polygon fill="#2f2316" fill-opacity="0.501961" points="156,238 160,220 151,225" />
<polygon fill="#a97d54" fill-opacity="0.501961" points="94,83 72,56 91,65" />
<polygon fill="#100404" fill-opacity="0.501961" points="102,173 94,179 98,201" />
<polygon fill="#372b19" fill-opacity="0.501961" points="-16,114 7,126 54,93" />
<polygon fill="#120b01" fill-opacity="0.501961" points="106,18 106,-2 177,22" />
<polygon fill="#b38d69" fill-opacity="0.501961" points="105,59 124,66 97,37" />
<polygon fill="#74604d" fill-opacity="0.501961" points="124,167 92,173 121,180" />
<polygon fill="#352116" fill-opacity="0.501961" points="137,96 165,96 145,48" />
<polygon fill="#493a25" fill-opacity="0.501961" points="90,227 78,212 95,220" />
<polygon fill="#1f170f" fill-opacity="0.501961" points="40,242 34,219 14,231" />
<polygon fill="#110702" fill-opacity="0.501961" points="106,209 104,179 121,209" />
<polygon fill="#4c5040" fill-opacity="0.501961" points="-15,233 15,256 18,237" />
<polygon fill="#bf9977" fill-opacity="0.501961" points="118,58 112,65 105,66" />
<polygon fill="#050000" fill-opacity="0.501961" points="-8,263 2,257 -12,220" />
<polygon fill="#241c0e" fill-opacity="0.501961" points="104,260 85,221 94,271" />
<polygon fill="#a07251" fill-opacity="0.501961" points="98,144 115,152 133,150" />
<polygon fill="#8a5935" fill-opacity="0.501961" points="72,110 84,96 79,89" />
<polygon fill="#1c1406" fill-opacity="0.501961" points="119,228 96,228 78,258" />
<polygon fill="#110600" fill-opacity="0.501961" points="180,103 142,106 156,115" />
<polygon fill="#ad7a52" fill-opacity="0.501961" points="142,94 140,100 138,100" />
<polygon fill="#231b0a" fill-opacity="0.501961" points="195,125 184,91 171,118" />
<polygon fill="#af300c" fill-opacity="0.501961" points="107,90 108,96 114,97" />
<polygon fill="#331902" fill-opacity="0.501961" points="63,71 69,75 84,69" />
<polygon fill="#3f2e22" fill-opacity="0.501961" points="164,101 169,77 144,103" />
<polygon fill="#271207" fill-opacity="0.501961" points="124,93 94,82 96,91" />
<polygon fill="#4d3c2a" fill-opacity="0.501961" points="160,98 171,67 180,69" />
<polygon fill="#291e11" fill-opacity="0.501961" points="108,261 107,237 55,271" />
<polygon fill="#150b02" fill-opacity="0.501961" points="124,155 139,174 149,161" />
<polygon fill="#75624c" fill-opacity="0.501961" points="180,102 176,94 168,94" />
<polygon fill="#453829" fill-opacity="0.501961" points="17,132 37,142 25,129" />
<polygon fill="#130401" fill-opacity="0.501961" points="128,134 146,133 148,124" />
<polygon fill="#392912" fill-opacity="0.501961" points="25,214 2,180 1,226" />
<polygon fill="#502e1c" fill-opacity="0.501961" points="127,155 142,150 109,150" />
<polygon fill="#28180d" fill-opacity="0.501961" points="144,93 154,67 145,74" />
<polygon fill="#563622" fill-opacity="0.501961" points="143,67 130,62 135,98" />
<polygon fill="#271f13" fill-opacity="0.501961" points="99,204 72,189 99,216" />
<polygon fill="#362a1c" fill-opacity="0.501961" points="89,207 105,200 88,199" />
<polygon fill="#3f2f1b" fill-opacity="0.501961" points="48,233 69,241 80,224" />
<polygon fill="#634537" fill-opacity="0.501961" points="76,162 69,162 68,180" />
<polygon fill="#130a00" fill-opacity="0.501961" points="132,233 130,253 145,255" />
<polygon fill="#402b1d" fill-opacity="0.501961" points="139,44 130,25 113,33" />
<polygon fill="#040503" fill-opacity="0.501961" points="52,159 52,170 55,165" />
<polygon fill="#3b2d17" fill-opacity="0.501961" points="190,144 145,145 177,132" />
<polygon fill="#8a6947" fill-opacity="0.501961" points="121,45 129,54 110,56" />
<polygon fill="#2e2210" fill-opacity="0.501961" points="181,97 179,129 169,129" />
<polygon fill="#a79274" fill-opacity="0.501961" points="39,133 36,120 35,132" />
<polygon fill="#231a0f" fill-opacity="0.501961" points="22,222 14,263 41,231" />
<polygon fill="#4e422e" fill-opacity="0.501961" points="73,198 70,205 86,195" />
<polygon fill="#976e49" fill-opacity="0.501961" points="55,110 62,85 54,96" />
<polygon fill="#170d03" fill-opacity="0.501961" points="127,253 117,237 103,233" />
<polygon fill="#5b4c3d" fill-opacity="0.501961" points="80,159 92,161 79,151" />
<polygon fill="#997c58" fill-opacity="0.501961" points="9,154 21,165 5,139" />
<polygon fill="#3b2a1f" fill-opacity="0.501961" points="177,50 154,29 154,45" />
<polygon fill="#31221d" fill-opacity="0.501961" points="123,20 100,22 144,30" />
<polygon fill="#8d7460" fill-opacity="0.501961" points="102,166 109,180 95,166" />
<polygon fill="#c48c67" fill-opacity="0.501961" points="140,142 136,135 131,143" />
<polygon fill="#c89466" fill-opacity="0.501961" points="60,134 59,121 68,142" />
<polygon fill="#45391f" fill-opacity="0.501961" points="101,221 120,227 109,227" />
<polygon fill="#1a170d" fill-opacity="0.501961" points="26,250 -5,250 -1,260" />
</g>
</svg>